<svg width="32" height="32" viewBox="0 0 32 32" fill="none" xmlns="http://www.w3.org/2000/svg">
<path d="M28.7905 4.46753C27.5202 6.73892 25.7038 8.63362 23.5169 9.96849C21.3299 11.3034 18.8464 12.0333 16.3063 12.0877C13.7663 12.1421 11.2555 11.5191 9.01685 10.279C6.77816 9.03893 4.8872 7.22363 3.52673 5.00859L10.8364 0.22398C11.3996 1.14095 12.1824 1.89243 13.1092 2.40579C14.0359 2.91915 15.0753 3.17704 16.1268 3.15452C17.1783 3.132 18.2064 2.82984 19.1118 2.27724C20.0171 1.72464 20.769 0.94029 21.2949 0L28.7905 4.46753Z" fill="#2E90FA"/>
<path d="M32 9.54981C29.4594 9.54981 26.9617 10.2264 24.7484 11.5141C22.5351 12.8019 20.6811 14.6573 19.3654 16.901C18.0497 19.1447 17.317 21.7008 17.2379 24.3223C17.1589 26.9438 17.7363 29.5421 18.9142 31.8659L26.5825 27.7233C26.0948 26.7612 25.8558 25.6856 25.8885 24.6003C25.9212 23.515 26.2246 22.4567 26.7693 21.5278C27.314 20.5989 28.0815 19.8308 28.9979 19.2977C29.9142 18.7645 30.9482 18.4844 32 18.4844V9.54981Z" fill="#2E90FA"/>
<path d="M0 9.54981C2.55307 9.54981 5.06255 10.233 7.28357 11.5328C9.50459 12.8326 11.3613 14.7045 12.6725 16.966C13.9838 19.2275 14.7047 21.8012 14.7651 24.4361C14.8255 27.071 14.2232 29.6771 13.017 32L5.38865 27.7786C5.88799 26.817 6.13732 25.7382 6.11233 24.6474C6.08734 23.5566 5.78888 22.4912 5.24607 21.555C4.70325 20.6188 3.93463 19.8439 3.01519 19.3058C2.09575 18.7677 1.0569 18.4849 0 18.4849V9.54981Z" fill="#2E90FA"/>
</svg>
