<svg version="1.2" xmlns="http://www.w3.org/2000/svg" viewBox="0 0 334 79" width="334" height="79">
	<style>
		.s0 { fill: #2280fe } 
		.s1 { fill: #2280fe;stroke: #ffffff;stroke-width: .4 } 
		.s2 { fill: #241f21 } 
	</style>
	<path class="s0" d="m82.83 37.62c0-17.18-13.93-31.11-31.11-31.11l-39.69 0.35-0.23 36.35q0.13-0.12 0.25-0.24c6.52-6.52 10.65-15.03 11.77-24.13h27.9c10.37 0 18.78 8.41 18.78 18.78 0 7.54-4.44 14.05-10.86 17.03q0 0 0 0 0 0.01-0.09 0.04-0.37 0.18-0.76 0.33c-0.38 0.17-0.84 0.36-1.2 0.5-1.01 0.38-2.61 0.88-2.61 0.88-7.05 1.84-13.54 5.53-18.76 10.75q-0.77 0.77-1.5 1.58h17c17.18 0 31.11-13.93 31.11-31.11z"/>
	<path class="s1" d="m24.13 34.04c0.39 5.41 2.71 10.5 6.55 14.34 3.84 3.84 8.94 6.17 14.35 6.56-5.41 0.38-10.51 2.71-14.35 6.55-3.84 3.84-6.16 8.93-6.55 14.34-0.39-5.41-2.71-10.5-6.55-14.34-3.84-3.84-8.93-6.17-14.35-6.55 5.42-0.39 10.51-2.72 14.35-6.56 3.84-3.84 6.16-8.93 6.55-14.34z"/>
	<path class="s2" d="m100.62 58.51v-34.66h13.87q3.6 0 6.8 1.04 3.22 1.04 5.58 3.22 2.41 2.13 3.8 5.39 1.38 3.27 1.38 7.68 0 4.4-1.38 7.67-1.39 3.27-3.8 5.45-2.37 2.12-5.58 3.16-3.2 1.04-6.8 1.05zm1.52-30.1q0.55-0.01 1.14 0.09 0.59 0.05 1.08 0.25 0.49 0.14 0.79 0.45 0.3 0.3 0.3 0.74v24.01h9.28q2.22 0 4.44-0.64 2.22-0.69 4-2.22 1.82-1.54 2.91-3.97 1.14-2.42 1.13-5.94c0-2.34-0.36-4.22-1.08-5.84q-1.09-2.42-2.86-3.96-1.78-1.53-4.05-2.23-2.22-0.74-4.49-0.74z"/>
	<path class="s2" d="m147.96 58.81q-2.71 0-5.23-0.75-2.47-0.79-4.34-2.38-1.83-1.58-2.96-3.96-1.09-2.38-1.09-5.6 0-3.21 1.09-5.59 1.14-2.38 2.96-3.97 1.87-1.58 4.34-2.32 2.52-0.79 5.23-0.79c1.81 0 3.59 0.26 5.23 0.79q2.47 0.79 4.35 2.38 1.87 1.53 2.95 3.91 1.14 2.38 1.14 5.59 0 3.22-1.14 5.6-1.08 2.38-2.95 3.96-1.88 1.59-4.35 2.38-2.47 0.74-5.23 0.75zm0-21.25q-1.67 0-3.31 0.55-1.57 0.54-2.81 1.63-1.19 1.08-1.92 2.72-0.74 1.58-0.74 3.66c0 1.39 0.23 2.73 0.69 3.82q0.69 1.58 1.88 2.62 1.18 1.04 2.76 1.59 1.63 0.49 3.46 0.49c1.22 0 2.3-0.16 3.35-0.49q1.63-0.55 2.82-1.59 1.23-1.09 1.92-2.67 0.74-1.64 0.74-3.77c0-1.41-0.25-2.6-0.74-3.66q-0.69-1.64-1.92-2.68-1.23-1.09-2.82-1.63-1.57-0.59-3.35-0.59z"/>
	<path class="s2" d="m161.13 33.76h6.17l6.12 7.77q0.25 0.34 0.34 0.79 0.15 0.44 0.15 0.89h0.1q0-0.99 0.54-1.68l6.08-7.77h6.11l-9.57 12.27 9.57 12.48h-6.07l-6.17-7.97q-0.25-0.34-0.39-0.79-0.1-0.49-0.1-0.89h-0.1q0 0.39-0.15 0.89-0.14 0.45-0.39 0.79l-6.12 7.97h-6.12l9.63-12.48z"/>
	<path class="s2" d="m194.08 28.06v-4.21h-4.98v4.21zm-4.88 5.7h4.78v24.75h-4.78z"/>
	<path class="s2" d="m196.56 33.76h5.23l7.05 18.9q0.3 0.84 0.45 1.84 0.15 0.99 0.19 1.83h0.1q-0.05-0.84 0.1-1.83 0.2-1 0.44-1.84l6.91-18.9h5.13l-9.23 24.75h-7.15l-9.23-24.75z"/>
	<path class="s2" d="m235.53 58.81q-2.72 0-5.18-0.75-2.47-0.79-4.34-2.38-1.83-1.58-2.91-3.96-1.09-2.38-1.09-5.6 0-3.21 1.09-5.59 1.08-2.38 2.91-3.97 1.87-1.58 4.34-2.32 2.47-0.79 5.18-0.79 2.71 0 5.08 0.79 2.42 0.79 4.2 2.38 1.77 1.53 2.81 3.91 1.04 2.38 1.04 5.59v0.75q0 0.15-0.1 0.64h-21.52q0.55 3.71 2.86 5.54 2.33 1.84 5.73 1.78 2.86-0.04 4.98-1.08 2.17-1.05 3.2-3.82l4.44 0.6q-0.69 2.22-1.97 3.81-1.23 1.59-2.91 2.58-1.68 0.94-3.7 1.44-1.98 0.45-4.15 0.45zm0.1-21.55q-1.63 0.01-3.26 0.65-1.63 0.59-2.86 1.88-1.23 1.24-1.97 3.17-0.7 1.93-0.49 4.55 0.29-0.99 0.64-1.59 0.39-0.59 0.88-0.89 0.55-0.3 1.19-0.4 0.69-0.09 1.58-0.09h12.73q-0.54-3.81-2.82-5.5-2.22-1.74-5.62-1.78z"/>
	<path class="s2" d="m251.56 40.39q0-3.37 1.57-5 1.58-1.63 4.99-1.63h9.92v4.55l-8.34 0.05q-1.04 0-1.68 0.1-0.64 0.1-1.03 0.49-0.35 0.35-0.49 1.09-0.1 0.74-0.1 2.02v16.44h-4.84v-18.12z"/>
	<path class="s2" d="m273.97 50.53q0.34 2.53 2.22 3.52 1.88 0.94 5.17 0.94 3.56 0 5.38-1.04 1.83-1.04 1.83-3.47 0-1.19-1.43-1.68-1.38-0.5-3.46-0.75-2.07-0.3-4.54-0.54-2.47-0.3-4.53-0.94-2.07-0.65-3.51-1.93-1.38-1.29-1.37-3.56 0-1.78 0.64-3.02 0.69-1.28 1.73-2.13 1.03-0.84 2.31-1.33 1.33-0.55 2.62-0.79 1.28-0.25 2.46-0.3 1.19-0.1 1.93-0.1 1.43 0 3.25 0.3 1.88 0.25 3.56 0.99 1.73 0.74 2.95 2.03 1.29 1.29 1.58 3.37l-4.39 0.64q-0.39-2.08-2.12-2.77-1.68-0.75-4.93-0.75c-2.17 0-3.93 0.28-5.08 0.84q-1.68 0.84-1.68 3.17 0 1.18 1.38 1.74 1.43 0.49 3.5 0.78 2.07 0.3 4.54 0.55 2.47 0.24 4.54 0.89 2.07 0.65 3.45 1.89 1.43 1.24 1.43 3.51 0.01 2.83-1.48 4.51-1.43 1.64-3.46 2.47-1.97 0.8-3.99 1-2.02 0.24-3.21 0.24-0.69 0-1.83-0.09-1.13-0.1-2.42-0.35-1.28-0.3-2.61-0.8-1.29-0.49-2.42-1.33-1.09-0.84-1.83-2.02-0.74-1.19-0.89-2.83l4.69-0.84z"/>
	<path class="s2" d="m308.87 58.81q-2.72 0-5.18-0.75-2.46-0.79-4.34-2.38-1.83-1.58-2.91-3.96-1.09-2.38-1.09-5.6 0-3.21 1.09-5.59 1.08-2.38 2.91-3.97 1.88-1.58 4.34-2.32 2.47-0.79 5.18-0.79 2.71 0 5.08 0.79 2.42 0.79 4.2 2.38 1.77 1.53 2.81 3.91 1.04 2.38 1.04 5.59v0.75q0 0.15-0.1 0.64h-21.52q0.55 3.71 2.87 5.54 2.32 1.84 5.72 1.78 2.86-0.04 4.98-1.08 2.17-1.05 3.21-3.82l4.44 0.6q-0.69 2.22-1.97 3.81-1.23 1.59-2.91 2.58-1.68 0.94-3.71 1.44-1.97 0.45-4.14 0.45zm0.1-21.55q-1.63 0.01-3.26 0.65-1.63 0.59-2.86 1.88-1.23 1.24-1.97 3.17-0.7 1.93-0.5 4.55 0.3-0.99 0.65-1.59 0.39-0.59 0.88-0.89 0.55-0.3 1.19-0.4 0.69-0.09 1.58-0.09h12.73q-0.54-3.81-2.82-5.5-2.22-1.74-5.62-1.78z"/>
</svg>