<svg width="24" height="25" viewBox="0 0 24 25" fill="none" xmlns="http://www.w3.org/2000/svg">
<path d="M5.91406 21.8525H1.7998V9.45605H5.91406V21.8525ZM16.2012 8.42285C17.8377 8.42297 19.4072 9.07603 20.5645 10.2383C21.7218 11.4007 22.3721 12.9772 22.3721 14.6211V21.8525H18.2578V14.6211C18.2578 14.0731 18.0411 13.5476 17.6553 13.1602C17.2696 12.7728 16.7466 12.5548 16.2012 12.5547C15.6556 12.5547 15.1319 12.7727 14.7461 13.1602C14.3603 13.5476 14.1436 14.0731 14.1436 14.6211V21.8525H10.0293V14.6211C10.0293 12.9772 10.6796 11.4007 11.8369 10.2383C12.9943 9.0759 14.5644 8.42285 16.2012 8.42285ZM3.85742 2.22461C4.99342 2.22476 5.91406 3.15004 5.91406 4.29102C5.914 5.43193 4.99338 6.35727 3.85742 6.35742C2.72133 6.35742 1.79987 5.43203 1.7998 4.29102C1.7998 3.14995 2.72129 2.22461 3.85742 2.22461Z" fill="#0066C8"/>
</svg>
