<svg width="1086" height="379" viewBox="0 0 1086 379" fill="none" xmlns="http://www.w3.org/2000/svg">
<rect width="1086" height="327" transform="translate(0 0.845703)" fill="white"/>
<path d="M542.5 12.5371L542.5 262.537" stroke="#D2DADD" stroke-width="1.5"/>
<path d="M543 202.691V48.6914" stroke="url(#paint0_linear_940_979)" stroke-width="2"/>
<path d="M177.5 250.537H294.75C306.762 250.537 316.5 260.275 316.5 272.287V272.287C316.5 284.299 326.238 294.037 338.25 294.037H439" stroke="#D2DADD" stroke-width="1.5"/>
<path d="M901.5 250.537H757.25C745.238 250.537 735.5 260.275 735.5 272.287V272.287C735.5 284.299 725.762 294.037 713.75 294.037H652.5" stroke="#D2DADD" stroke-width="1.5"/>
<path d="M901.5 250.537H757.25C745.238 250.537 735.5 260.275 735.5 272.287V272.287C735.5 284.299 725.762 294.037 713.75 294.037H692.5" stroke="url(#paint1_linear_940_979)" stroke-width="2"/>
<path d="M247.5 250.537H295.25C307.262 250.537 317 260.275 317 272.287V272.287C317 284.299 326.738 294.037 338.75 294.037H413.5" stroke="url(#paint2_linear_940_979)" stroke-width="2"/>
<path d="M273 120.537H388H448C473.405 120.537 494 141.132 494 166.537V246.037" stroke="#D5DDE0" stroke-width="1.5"/>
<path d="M814 135.536H699L639 135.537C613.595 135.537 593 156.132 593 181.537V246.037" stroke="#D2DADD" stroke-width="1.5"/>
<g filter="url(#filter0_d_940_979)">
<rect x="433" y="245.691" width="220" height="82" rx="41" fill="white"/>
<rect x="433" y="245.691" width="220" height="82" rx="41" stroke="#D2DADD"/>
</g>
<path d="M480.114 279.266V276.173H496.361V279.266H490.067V296.537H486.408V279.266H480.114ZM501.434 296.756C500.831 296.756 500.314 296.544 499.883 296.119C499.452 295.695 499.24 295.178 499.247 294.568C499.24 293.972 499.452 293.461 499.883 293.037C500.314 292.613 500.831 292.401 501.434 292.401C502.017 292.401 502.525 292.613 502.955 293.037C503.393 293.461 503.615 293.972 503.622 294.568C503.615 294.973 503.509 295.341 503.303 295.672C503.105 296.003 502.839 296.269 502.508 296.468C502.183 296.66 501.825 296.756 501.434 296.756ZM508.337 296.537V276.173H515.973C517.538 276.173 518.85 276.445 519.911 276.989C520.978 277.532 521.783 278.295 522.327 279.276C522.877 280.25 523.152 281.387 523.152 282.686C523.152 283.992 522.874 285.126 522.317 286.087C521.767 287.041 520.955 287.78 519.881 288.304C518.807 288.821 517.488 289.08 515.924 289.08H510.485V286.017H515.426C516.341 286.017 517.09 285.891 517.674 285.639C518.257 285.381 518.688 285.006 518.966 284.516C519.251 284.019 519.394 283.409 519.394 282.686C519.394 281.964 519.251 281.347 518.966 280.837C518.681 280.32 518.247 279.929 517.664 279.664C517.08 279.392 516.328 279.256 515.407 279.256H512.026V296.537H508.337ZM518.857 287.31L523.898 296.537H519.782L514.83 287.31H518.857ZM529.446 296.756C528.843 296.756 528.326 296.544 527.895 296.119C527.464 295.695 527.252 295.178 527.259 294.568C527.252 293.972 527.464 293.461 527.895 293.037C528.326 292.613 528.843 292.401 529.446 292.401C530.029 292.401 530.537 292.613 530.967 293.037C531.405 293.461 531.627 293.972 531.634 294.568C531.627 294.973 531.521 295.341 531.315 295.672C531.117 296.003 530.851 296.269 530.52 296.468C530.195 296.66 529.837 296.756 529.446 296.756ZM549.186 276.173H552.875V289.477C552.875 290.936 552.53 292.218 551.84 293.325C551.158 294.432 550.197 295.298 548.957 295.921C547.717 296.537 546.269 296.845 544.612 296.845C542.948 296.845 541.496 296.537 540.257 295.921C539.017 295.298 538.056 294.432 537.373 293.325C536.69 292.218 536.349 290.936 536.349 289.477V276.173H540.038V289.169C540.038 290.018 540.224 290.773 540.595 291.436C540.973 292.099 541.503 292.619 542.186 292.997C542.868 293.369 543.677 293.554 544.612 293.554C545.546 293.554 546.355 293.369 547.038 292.997C547.727 292.619 548.258 292.099 548.629 291.436C549 290.773 549.186 290.018 549.186 289.169V276.173ZM558.825 296.756C558.222 296.756 557.705 296.544 557.274 296.119C556.843 295.695 556.631 295.178 556.638 294.568C556.631 293.972 556.843 293.461 557.274 293.037C557.705 292.613 558.222 292.401 558.825 292.401C559.409 292.401 559.916 292.613 560.347 293.037C560.784 293.461 561.006 293.972 561.013 294.568C561.006 294.973 560.9 295.341 560.695 295.672C560.496 296.003 560.231 296.269 559.899 296.468C559.574 296.66 559.216 296.756 558.825 296.756ZM576.795 281.771C576.702 280.903 576.311 280.227 575.622 279.743C574.939 279.259 574.051 279.017 572.957 279.017C572.188 279.017 571.528 279.133 570.978 279.365C570.428 279.597 570.007 279.912 569.715 280.31C569.424 280.708 569.275 281.162 569.268 281.672C569.268 282.096 569.364 282.464 569.556 282.776C569.755 283.087 570.024 283.352 570.362 283.571C570.7 283.783 571.074 283.962 571.485 284.108C571.896 284.254 572.311 284.377 572.728 284.476L574.637 284.953C575.406 285.132 576.145 285.374 576.855 285.679C577.571 285.984 578.21 286.369 578.774 286.833C579.344 287.297 579.794 287.857 580.126 288.513C580.457 289.169 580.623 289.938 580.623 290.82C580.623 292.013 580.318 293.064 579.708 293.972C579.098 294.873 578.217 295.579 577.063 296.09C575.917 296.593 574.528 296.845 572.897 296.845C571.313 296.845 569.937 296.6 568.771 296.11C567.611 295.619 566.703 294.903 566.046 293.962C565.397 293.021 565.045 291.874 564.992 290.521H568.622C568.675 291.231 568.893 291.821 569.278 292.291C569.662 292.762 570.163 293.113 570.779 293.345C571.402 293.577 572.098 293.693 572.867 293.693C573.669 293.693 574.372 293.574 574.975 293.335C575.585 293.09 576.062 292.752 576.407 292.321C576.752 291.884 576.928 291.373 576.934 290.79C576.928 290.26 576.772 289.822 576.467 289.477C576.162 289.126 575.734 288.834 575.184 288.602C574.641 288.364 574.004 288.152 573.275 287.966L570.958 287.369C569.281 286.939 567.955 286.286 566.981 285.411C566.013 284.529 565.529 283.359 565.529 281.901C565.529 280.701 565.854 279.65 566.504 278.749C567.16 277.847 568.052 277.148 569.178 276.651C570.305 276.147 571.581 275.895 573.007 275.895C574.452 275.895 575.718 276.147 576.805 276.651C577.899 277.148 578.757 277.841 579.38 278.729C580.003 279.61 580.325 280.625 580.345 281.771H576.795ZM586.81 296.756C586.207 296.756 585.69 296.544 585.259 296.119C584.828 295.695 584.616 295.178 584.623 294.568C584.616 293.972 584.828 293.461 585.259 293.037C585.69 292.613 586.207 292.401 586.81 292.401C587.393 292.401 587.9 292.613 588.331 293.037C588.769 293.461 588.991 293.972 588.998 294.568C588.991 294.973 588.885 295.341 588.679 295.672C588.48 296.003 588.215 296.269 587.884 296.468C587.559 296.66 587.201 296.756 586.81 296.756ZM591.861 279.266V276.173H608.108V279.266H601.814V296.537H598.155V279.266H591.861Z" fill="#222222"/>
<rect x="843" y="224.537" width="211" height="51" rx="25.5" fill="white"/>
<rect x="843" y="224.537" width="211" height="51" rx="25.5" stroke="#D2DADD"/>
<circle cx="866" cy="250.037" r="5" fill="#2E90FA"/>
<path d="M881.562 246.016V243.446H892.627V246.016H888.658V256.537H885.538V246.016H881.562ZM905.015 249.161V250.823H899.211V249.161H905.015ZM911.834 245.146V243.446H921.965V245.146H917.881V256.537H915.912V245.146H911.834ZM926.762 256.735C925.842 256.735 925.039 256.524 924.352 256.102C923.666 255.681 923.134 255.09 922.754 254.332C922.375 253.573 922.186 252.687 922.186 251.673C922.186 250.654 922.375 249.764 922.754 249.001C923.134 248.238 923.666 247.646 924.352 247.224C925.039 246.802 925.842 246.591 926.762 246.591C927.683 246.591 928.486 246.802 929.172 247.224C929.858 247.646 930.391 248.238 930.77 249.001C931.149 249.764 931.339 250.654 931.339 251.673C931.339 252.687 931.149 253.573 930.77 254.332C930.391 255.09 929.858 255.681 929.172 256.102C928.486 256.524 927.683 256.735 926.762 256.735ZM926.769 255.131C927.365 255.131 927.86 254.973 928.252 254.658C928.644 254.343 928.933 253.923 929.121 253.399C929.313 252.874 929.409 252.297 929.409 251.666C929.409 251.04 929.313 250.465 929.121 249.941C928.933 249.412 928.644 248.988 928.252 248.669C927.86 248.349 927.365 248.189 926.769 248.189C926.168 248.189 925.669 248.349 925.273 248.669C924.881 248.988 924.589 249.412 924.397 249.941C924.21 250.465 924.116 251.04 924.116 251.666C924.116 252.297 924.21 252.874 924.397 253.399C924.589 253.923 924.881 254.343 925.273 254.658C925.669 254.973 926.168 255.131 926.769 255.131ZM937.589 260.423C936.809 260.423 936.138 260.321 935.575 260.117C935.017 259.912 934.561 259.642 934.207 259.305C933.854 258.968 933.589 258.6 933.415 258.199L935.058 257.521C935.173 257.709 935.326 257.907 935.518 258.116C935.714 258.329 935.978 258.51 936.31 258.659C936.647 258.808 937.08 258.883 937.608 258.883C938.332 258.883 938.931 258.706 939.404 258.352C939.877 258.003 940.114 257.445 940.114 256.678V254.747H939.992C939.877 254.956 939.711 255.188 939.494 255.444C939.281 255.7 938.987 255.921 938.612 256.109C938.237 256.296 937.749 256.39 937.148 256.39C936.372 256.39 935.673 256.209 935.051 255.847C934.433 255.48 933.943 254.941 933.581 254.23C933.223 253.514 933.044 252.634 933.044 251.59C933.044 250.546 933.221 249.651 933.575 248.905C933.933 248.159 934.423 247.588 935.045 247.192C935.667 246.791 936.372 246.591 937.161 246.591C937.77 246.591 938.262 246.693 938.637 246.898C939.012 247.098 939.304 247.333 939.513 247.601C939.726 247.869 939.89 248.106 940.005 248.311H940.146V246.719H942.018V256.754C942.018 257.598 941.822 258.291 941.43 258.832C941.038 259.373 940.508 259.774 939.839 260.034C939.174 260.294 938.424 260.423 937.589 260.423ZM937.57 254.805C938.119 254.805 938.584 254.677 938.963 254.421C939.347 254.161 939.636 253.791 939.832 253.309C940.033 252.823 940.133 252.242 940.133 251.564C940.133 250.904 940.035 250.322 939.839 249.819C939.643 249.316 939.355 248.924 938.976 248.643C938.597 248.357 938.128 248.215 937.57 248.215C936.994 248.215 936.515 248.364 936.131 248.662C935.748 248.956 935.458 249.357 935.262 249.864C935.07 250.371 934.974 250.938 934.974 251.564C934.974 252.208 935.072 252.772 935.268 253.258C935.464 253.744 935.754 254.123 936.138 254.396C936.526 254.669 937.003 254.805 937.57 254.805ZM948.813 256.735C947.846 256.735 947.013 256.529 946.314 256.115C945.619 255.698 945.082 255.112 944.703 254.357C944.328 253.599 944.141 252.71 944.141 251.692C944.141 250.686 944.328 249.8 944.703 249.033C945.082 248.266 945.611 247.667 946.288 247.237C946.97 246.806 947.767 246.591 948.679 246.591C949.233 246.591 949.77 246.683 950.29 246.866C950.81 247.049 951.276 247.337 951.69 247.729C952.103 248.121 952.429 248.63 952.668 249.257C952.906 249.879 953.026 250.635 953.026 251.526V252.203H945.221V250.771H951.153C951.153 250.269 951.05 249.823 950.846 249.436C950.641 249.044 950.354 248.735 949.983 248.509C949.616 248.283 949.186 248.17 948.692 248.17C948.155 248.17 947.686 248.302 947.286 248.566C946.889 248.826 946.582 249.167 946.365 249.589C946.152 250.007 946.045 250.46 946.045 250.95V252.069C946.045 252.725 946.161 253.284 946.391 253.744C946.625 254.204 946.951 254.556 947.369 254.798C947.786 255.037 948.274 255.156 948.832 255.156C949.195 255.156 949.525 255.105 949.823 255.003C950.121 254.896 950.379 254.739 950.597 254.53C950.814 254.321 950.98 254.063 951.095 253.757L952.904 254.083C952.759 254.615 952.499 255.082 952.124 255.482C951.754 255.879 951.287 256.188 950.724 256.409C950.166 256.627 949.529 256.735 948.813 256.735ZM959.729 246.719V248.253H954.366V246.719H959.729ZM955.805 244.367H957.716V253.654C957.716 254.025 957.771 254.304 957.882 254.492C957.993 254.675 958.135 254.801 958.31 254.869C958.489 254.933 958.683 254.965 958.892 254.965C959.045 254.965 959.18 254.954 959.295 254.933C959.41 254.911 959.499 254.894 959.563 254.882L959.908 256.46C959.797 256.503 959.64 256.546 959.435 256.588C959.231 256.635 958.975 256.661 958.668 256.665C958.165 256.673 957.697 256.584 957.262 256.396C956.827 256.209 956.476 255.919 956.207 255.527C955.939 255.135 955.805 254.643 955.805 254.051V244.367ZM963.966 250.708V256.537H962.054V243.446H963.94V248.317H964.061C964.292 247.789 964.643 247.369 965.116 247.058C965.589 246.747 966.207 246.591 966.97 246.591C967.643 246.591 968.231 246.73 968.734 247.007C969.241 247.284 969.633 247.697 969.91 248.247C970.191 248.792 970.332 249.474 970.332 250.292V256.537H968.421V250.522C968.421 249.802 968.235 249.244 967.865 248.847C967.494 248.447 966.978 248.247 966.318 248.247C965.866 248.247 965.461 248.343 965.103 248.534C964.75 248.726 964.471 249.007 964.266 249.378C964.066 249.744 963.966 250.188 963.966 250.708ZM977.114 256.735C976.147 256.735 975.314 256.529 974.615 256.115C973.92 255.698 973.383 255.112 973.004 254.357C972.629 253.599 972.441 252.71 972.441 251.692C972.441 250.686 972.629 249.8 973.004 249.033C973.383 248.266 973.912 247.667 974.589 247.237C975.271 246.806 976.068 246.591 976.98 246.591C977.534 246.591 978.071 246.683 978.591 246.866C979.11 247.049 979.577 247.337 979.99 247.729C980.404 248.121 980.73 248.63 980.968 249.257C981.207 249.879 981.326 250.635 981.326 251.526V252.203H973.522V250.771H979.453C979.453 250.269 979.351 249.823 979.147 249.436C978.942 249.044 978.654 248.735 978.284 248.509C977.917 248.283 977.487 248.17 976.993 248.17C976.456 248.17 975.987 248.302 975.586 248.566C975.19 248.826 974.883 249.167 974.666 249.589C974.453 250.007 974.346 250.46 974.346 250.95V252.069C974.346 252.725 974.461 253.284 974.691 253.744C974.926 254.204 975.252 254.556 975.669 254.798C976.087 255.037 976.575 255.156 977.133 255.156C977.495 255.156 977.826 255.105 978.124 255.003C978.422 254.896 978.68 254.739 978.897 254.53C979.115 254.321 979.281 254.063 979.396 253.757L981.205 254.083C981.06 254.615 980.8 255.082 980.425 255.482C980.054 255.879 979.588 256.188 979.025 256.409C978.467 256.627 977.83 256.735 977.114 256.735ZM983.447 256.537V246.719H985.294V248.279H985.396C985.575 247.75 985.891 247.335 986.343 247.032C986.798 246.725 987.314 246.572 987.889 246.572C988.009 246.572 988.149 246.576 988.311 246.585C988.477 246.593 988.607 246.604 988.701 246.617V248.445C988.624 248.423 988.488 248.4 988.292 248.374C988.096 248.345 987.9 248.33 987.704 248.33C987.252 248.33 986.85 248.426 986.496 248.617C986.146 248.805 985.869 249.067 985.665 249.404C985.46 249.736 985.358 250.115 985.358 250.541V256.537H983.447ZM992.266 250.708V256.537H990.355V246.719H992.19V248.317H992.311C992.537 247.797 992.891 247.379 993.372 247.064C993.858 246.749 994.469 246.591 995.207 246.591C995.876 246.591 996.462 246.732 996.964 247.013C997.467 247.29 997.857 247.703 998.134 248.253C998.411 248.803 998.55 249.482 998.55 250.292V256.537H996.638V250.522C996.638 249.811 996.453 249.254 996.082 248.854C995.712 248.449 995.202 248.247 994.555 248.247C994.112 248.247 993.717 248.343 993.372 248.534C993.031 248.726 992.761 249.007 992.56 249.378C992.364 249.744 992.266 250.188 992.266 250.708ZM1005.34 256.735C1004.38 256.735 1003.54 256.529 1002.85 256.115C1002.15 255.698 1001.61 255.112 1001.23 254.357C1000.86 253.599 1000.67 252.71 1000.67 251.692C1000.67 250.686 1000.86 249.8 1001.23 249.033C1001.61 248.266 1002.14 247.667 1002.82 247.237C1003.5 246.806 1004.3 246.591 1005.21 246.591C1005.76 246.591 1006.3 246.683 1006.82 246.866C1007.34 247.049 1007.81 247.337 1008.22 247.729C1008.63 248.121 1008.96 248.63 1009.2 249.257C1009.44 249.879 1009.56 250.635 1009.56 251.526V252.203H1001.75V250.771H1007.68C1007.68 250.269 1007.58 249.823 1007.38 249.436C1007.17 249.044 1006.88 248.735 1006.51 248.509C1006.15 248.283 1005.72 248.17 1005.22 248.17C1004.69 248.17 1004.22 248.302 1003.82 248.566C1003.42 248.826 1003.11 249.167 1002.9 249.589C1002.68 250.007 1002.58 250.46 1002.58 250.95V252.069C1002.58 252.725 1002.69 253.284 1002.92 253.744C1003.16 254.204 1003.48 254.556 1003.9 254.798C1004.32 255.037 1004.81 255.156 1005.36 255.156C1005.73 255.156 1006.06 255.105 1006.35 255.003C1006.65 254.896 1006.91 254.739 1007.13 254.53C1007.35 254.321 1007.51 254.063 1007.63 253.757L1009.44 254.083C1009.29 254.615 1009.03 255.082 1008.66 255.482C1008.28 255.879 1007.82 256.188 1007.26 256.409C1006.7 256.627 1006.06 256.735 1005.34 256.735ZM1019.03 249.116L1017.3 249.423C1017.23 249.201 1017.11 248.99 1016.96 248.79C1016.8 248.59 1016.59 248.426 1016.33 248.298C1016.07 248.17 1015.74 248.106 1015.34 248.106C1014.8 248.106 1014.35 248.227 1013.98 248.47C1013.62 248.709 1013.44 249.018 1013.44 249.397C1013.44 249.725 1013.56 249.99 1013.81 250.19C1014.05 250.39 1014.44 250.554 1014.98 250.682L1016.54 251.04C1017.45 251.249 1018.12 251.57 1018.56 252.005C1019 252.44 1019.23 253.004 1019.23 253.699C1019.23 254.287 1019.06 254.811 1018.72 255.271C1018.38 255.727 1017.91 256.085 1017.3 256.345C1016.7 256.605 1016 256.735 1015.21 256.735C1014.11 256.735 1013.22 256.501 1012.52 256.032C1011.83 255.559 1011.4 254.888 1011.24 254.019L1013.09 253.737C1013.21 254.219 1013.44 254.583 1013.8 254.83C1014.16 255.073 1014.62 255.195 1015.2 255.195C1015.83 255.195 1016.33 255.065 1016.7 254.805C1017.08 254.541 1017.26 254.219 1017.26 253.84C1017.26 253.533 1017.15 253.275 1016.92 253.066C1016.69 252.857 1016.35 252.7 1015.88 252.593L1014.22 252.229C1013.3 252.02 1012.62 251.688 1012.18 251.232C1011.75 250.776 1011.53 250.198 1011.53 249.499C1011.53 248.92 1011.69 248.413 1012.02 247.978C1012.34 247.544 1012.79 247.205 1013.36 246.962C1013.93 246.715 1014.58 246.591 1015.32 246.591C1016.38 246.591 1017.22 246.821 1017.83 247.281C1018.44 247.737 1018.84 248.349 1019.03 249.116ZM1028.69 249.116L1026.95 249.423C1026.88 249.201 1026.77 248.99 1026.61 248.79C1026.45 248.59 1026.25 248.426 1025.98 248.298C1025.72 248.17 1025.39 248.106 1024.99 248.106C1024.45 248.106 1024 248.227 1023.64 248.47C1023.27 248.709 1023.09 249.018 1023.09 249.397C1023.09 249.725 1023.21 249.99 1023.46 250.19C1023.7 250.39 1024.09 250.554 1024.63 250.682L1026.19 251.04C1027.1 251.249 1027.77 251.57 1028.21 252.005C1028.66 252.44 1028.88 253.004 1028.88 253.699C1028.88 254.287 1028.71 254.811 1028.37 255.271C1028.03 255.727 1027.56 256.085 1026.95 256.345C1026.35 256.605 1025.66 256.735 1024.86 256.735C1023.76 256.735 1022.87 256.501 1022.17 256.032C1021.48 255.559 1021.05 254.888 1020.89 254.019L1022.74 253.737C1022.86 254.219 1023.09 254.583 1023.45 254.83C1023.81 255.073 1024.27 255.195 1024.85 255.195C1025.48 255.195 1025.98 255.065 1026.35 254.805C1026.73 254.541 1026.91 254.219 1026.91 253.84C1026.91 253.533 1026.8 253.275 1026.57 253.066C1026.34 252.857 1026 252.7 1025.53 252.593L1023.87 252.229C1022.95 252.02 1022.27 251.688 1021.83 251.232C1021.4 250.776 1021.18 250.198 1021.18 249.499C1021.18 248.92 1021.34 248.413 1021.67 247.978C1021.99 247.544 1022.44 247.205 1023.01 246.962C1023.58 246.715 1024.23 246.591 1024.97 246.591C1026.03 246.591 1026.87 246.821 1027.48 247.281C1028.09 247.737 1028.49 248.349 1028.69 249.116Z" fill="#101010"/>
<rect x="40" y="224.537" width="210" height="51" rx="25.5" fill="white"/>
<rect x="40" y="224.537" width="210" height="51" rx="25.5" stroke="#D2DADD"/>
<circle cx="63" cy="250.037" r="5" fill="#2E90FA"/>
<path d="M78.5625 246.016V243.446H89.6271V246.016H85.6577V256.537H82.5384V246.016H78.5625ZM102.015 249.161V250.823H96.2109V249.161H102.015ZM108.834 245.146V243.446H118.965V245.146H114.881V256.537H112.912V245.146H108.834ZM120.031 256.537V246.719H121.878V248.279H121.98C122.159 247.75 122.475 247.335 122.926 247.032C123.382 246.725 123.898 246.572 124.473 246.572C124.593 246.572 124.733 246.576 124.895 246.585C125.061 246.593 125.191 246.604 125.285 246.617V248.445C125.208 248.423 125.072 248.4 124.876 248.374C124.68 248.345 124.484 248.33 124.288 248.33C123.836 248.33 123.434 248.426 123.08 248.617C122.73 248.805 122.453 249.067 122.249 249.404C122.044 249.736 121.942 250.115 121.942 250.541V256.537H120.031ZM129.708 256.754C129.086 256.754 128.524 256.639 128.021 256.409C127.518 256.175 127.12 255.836 126.826 255.393C126.536 254.95 126.391 254.406 126.391 253.763C126.391 253.209 126.498 252.753 126.711 252.395C126.924 252.037 127.211 251.754 127.574 251.545C127.936 251.336 128.341 251.178 128.788 251.072C129.235 250.965 129.691 250.884 130.156 250.829C130.744 250.761 131.221 250.705 131.588 250.663C131.954 250.616 132.221 250.541 132.387 250.439C132.553 250.337 132.636 250.171 132.636 249.941V249.896C132.636 249.338 132.478 248.905 132.163 248.598C131.852 248.291 131.387 248.138 130.77 248.138C130.126 248.138 129.619 248.281 129.248 248.566C128.882 248.847 128.628 249.161 128.488 249.506L126.691 249.097C126.904 248.5 127.216 248.019 127.625 247.652C128.038 247.281 128.513 247.013 129.05 246.847C129.587 246.676 130.152 246.591 130.744 246.591C131.136 246.591 131.551 246.638 131.99 246.732C132.434 246.821 132.847 246.987 133.23 247.23C133.618 247.473 133.936 247.82 134.183 248.272C134.43 248.72 134.554 249.301 134.554 250.017V256.537H132.687V255.195H132.61C132.487 255.442 132.301 255.685 132.054 255.923C131.807 256.162 131.49 256.36 131.102 256.518C130.714 256.676 130.25 256.754 129.708 256.754ZM130.124 255.22C130.652 255.22 131.104 255.116 131.479 254.907C131.858 254.698 132.146 254.426 132.342 254.089C132.542 253.748 132.642 253.384 132.642 252.996V251.73C132.574 251.798 132.442 251.862 132.246 251.922C132.054 251.977 131.835 252.026 131.588 252.069C131.341 252.107 131.1 252.144 130.865 252.178C130.631 252.208 130.435 252.233 130.277 252.254C129.907 252.301 129.568 252.38 129.261 252.491C128.958 252.602 128.716 252.762 128.532 252.97C128.353 253.175 128.264 253.448 128.264 253.789C128.264 254.262 128.439 254.619 128.788 254.862C129.137 255.101 129.583 255.22 130.124 255.22ZM139.01 250.708V256.537H137.099V246.719H138.934V248.317H139.055C139.281 247.797 139.635 247.379 140.116 247.064C140.602 246.749 141.214 246.591 141.951 246.591C142.62 246.591 143.206 246.732 143.709 247.013C144.211 247.29 144.601 247.703 144.878 248.253C145.155 248.803 145.294 249.482 145.294 250.292V256.537H143.383V250.522C143.383 249.811 143.197 249.254 142.827 248.854C142.456 248.449 141.947 248.247 141.299 248.247C140.856 248.247 140.461 248.343 140.116 248.534C139.775 248.726 139.505 249.007 139.305 249.378C139.108 249.744 139.01 250.188 139.01 250.708ZM155.214 249.116L153.482 249.423C153.41 249.201 153.295 248.99 153.137 248.79C152.983 248.59 152.775 248.426 152.51 248.298C152.246 248.17 151.916 248.106 151.52 248.106C150.979 248.106 150.527 248.227 150.165 248.47C149.802 248.709 149.621 249.018 149.621 249.397C149.621 249.725 149.743 249.99 149.986 250.19C150.229 250.39 150.621 250.554 151.162 250.682L152.721 251.04C153.625 251.249 154.298 251.57 154.741 252.005C155.184 252.44 155.406 253.004 155.406 253.699C155.406 254.287 155.236 254.811 154.895 255.271C154.558 255.727 154.087 256.085 153.482 256.345C152.881 256.605 152.184 256.735 151.392 256.735C150.292 256.735 149.395 256.501 148.701 256.032C148.006 255.559 147.58 254.888 147.422 254.019L149.27 253.737C149.385 254.219 149.621 254.583 149.979 254.83C150.337 255.073 150.804 255.195 151.379 255.195C152.006 255.195 152.506 255.065 152.881 254.805C153.256 254.541 153.444 254.219 153.444 253.84C153.444 253.533 153.329 253.275 153.099 253.066C152.873 252.857 152.525 252.7 152.057 252.593L150.395 252.229C149.479 252.02 148.801 251.688 148.362 251.232C147.927 250.776 147.71 250.198 147.71 249.499C147.71 248.92 147.872 248.413 148.196 247.978C148.52 247.544 148.967 247.205 149.538 246.962C150.109 246.715 150.763 246.591 151.501 246.591C152.562 246.591 153.397 246.821 154.006 247.281C154.616 247.737 155.018 248.349 155.214 249.116ZM157.507 260.219V246.719H159.374V248.311H159.534C159.645 248.106 159.804 247.869 160.013 247.601C160.222 247.333 160.512 247.098 160.882 246.898C161.253 246.693 161.743 246.591 162.353 246.591C163.145 246.591 163.853 246.791 164.475 247.192C165.097 247.593 165.585 248.17 165.939 248.924C166.297 249.678 166.475 250.586 166.475 251.647C166.475 252.708 166.299 253.618 165.945 254.377C165.591 255.131 165.105 255.713 164.488 256.122C163.87 256.526 163.164 256.729 162.372 256.729C161.775 256.729 161.287 256.629 160.908 256.428C160.533 256.228 160.239 255.994 160.026 255.725C159.813 255.457 159.649 255.218 159.534 255.009H159.419V260.219H157.507ZM159.38 251.628C159.38 252.318 159.48 252.923 159.681 253.443C159.881 253.963 160.171 254.37 160.55 254.664C160.929 254.954 161.394 255.099 161.944 255.099C162.515 255.099 162.992 254.948 163.375 254.645C163.759 254.338 164.049 253.923 164.245 253.399C164.445 252.874 164.545 252.284 164.545 251.628C164.545 250.98 164.447 250.399 164.251 249.883C164.059 249.367 163.77 248.96 163.382 248.662C162.998 248.364 162.519 248.215 161.944 248.215C161.39 248.215 160.921 248.357 160.537 248.643C160.158 248.928 159.87 249.327 159.674 249.838C159.478 250.35 159.38 250.946 159.38 251.628ZM171.474 256.754C170.852 256.754 170.289 256.639 169.787 256.409C169.284 256.175 168.885 255.836 168.591 255.393C168.301 254.95 168.157 254.406 168.157 253.763C168.157 253.209 168.263 252.753 168.476 252.395C168.689 252.037 168.977 251.754 169.339 251.545C169.701 251.336 170.106 251.178 170.554 251.072C171.001 250.965 171.457 250.884 171.922 250.829C172.51 250.761 172.987 250.705 173.353 250.663C173.72 250.616 173.986 250.541 174.152 250.439C174.319 250.337 174.402 250.171 174.402 249.941V249.896C174.402 249.338 174.244 248.905 173.929 248.598C173.618 248.291 173.153 248.138 172.535 248.138C171.892 248.138 171.385 248.281 171.014 248.566C170.647 248.847 170.394 249.161 170.253 249.506L168.457 249.097C168.67 248.5 168.981 248.019 169.39 247.652C169.804 247.281 170.279 247.013 170.816 246.847C171.353 246.676 171.917 246.591 172.51 246.591C172.902 246.591 173.317 246.638 173.756 246.732C174.199 246.821 174.613 246.987 174.996 247.23C175.384 247.473 175.701 247.82 175.949 248.272C176.196 248.72 176.319 249.301 176.319 250.017V256.537H174.453V255.195H174.376C174.252 255.442 174.067 255.685 173.82 255.923C173.573 256.162 173.255 256.36 172.868 256.518C172.48 256.676 172.015 256.754 171.474 256.754ZM171.89 255.22C172.418 255.22 172.87 255.116 173.245 254.907C173.624 254.698 173.912 254.426 174.108 254.089C174.308 253.748 174.408 253.384 174.408 252.996V251.73C174.34 251.798 174.208 251.862 174.012 251.922C173.82 251.977 173.6 252.026 173.353 252.069C173.106 252.107 172.865 252.144 172.631 252.178C172.397 252.208 172.201 252.233 172.043 252.254C171.672 252.301 171.333 252.38 171.027 252.491C170.724 252.602 170.481 252.762 170.298 252.97C170.119 253.175 170.029 253.448 170.029 253.789C170.029 254.262 170.204 254.619 170.554 254.862C170.903 255.101 171.348 255.22 171.89 255.22ZM178.865 256.537V246.719H180.712V248.279H180.814C180.993 247.75 181.309 247.335 181.76 247.032C182.216 246.725 182.732 246.572 183.307 246.572C183.427 246.572 183.567 246.576 183.729 246.585C183.895 246.593 184.025 246.604 184.119 246.617V248.445C184.042 248.423 183.906 248.4 183.71 248.374C183.514 248.345 183.318 248.33 183.122 248.33C182.67 248.33 182.268 248.426 181.914 248.617C181.564 248.805 181.287 249.067 181.083 249.404C180.878 249.736 180.776 250.115 180.776 250.541V256.537H178.865ZM189.653 256.735C188.686 256.735 187.853 256.529 187.154 256.115C186.459 255.698 185.922 255.112 185.543 254.357C185.168 253.599 184.98 252.71 184.98 251.692C184.98 250.686 185.168 249.8 185.543 249.033C185.922 248.266 186.451 247.667 187.128 247.237C187.81 246.806 188.607 246.591 189.519 246.591C190.073 246.591 190.61 246.683 191.13 246.866C191.65 247.049 192.116 247.337 192.529 247.729C192.943 248.121 193.269 248.63 193.507 249.257C193.746 249.879 193.865 250.635 193.865 251.526V252.203H186.061V250.771H191.993C191.993 250.269 191.89 249.823 191.686 249.436C191.481 249.044 191.194 248.735 190.823 248.509C190.456 248.283 190.026 248.17 189.532 248.17C188.995 248.17 188.526 248.302 188.125 248.566C187.729 248.826 187.422 249.167 187.205 249.589C186.992 250.007 186.885 250.46 186.885 250.95V252.069C186.885 252.725 187 253.284 187.23 253.744C187.465 254.204 187.791 254.556 188.208 254.798C188.626 255.037 189.114 255.156 189.672 255.156C190.034 255.156 190.365 255.105 190.663 255.003C190.961 254.896 191.219 254.739 191.436 254.53C191.654 254.321 191.82 254.063 191.935 253.757L193.744 254.083C193.599 254.615 193.339 255.082 192.964 255.482C192.593 255.879 192.127 256.188 191.564 256.409C191.006 256.627 190.369 256.735 189.653 256.735ZM197.897 250.708V256.537H195.986V246.719H197.82V248.317H197.942C198.168 247.797 198.521 247.379 199.003 247.064C199.489 246.749 200.1 246.591 200.838 246.591C201.507 246.591 202.093 246.732 202.595 247.013C203.098 247.29 203.488 247.703 203.765 248.253C204.042 248.803 204.181 249.482 204.181 250.292V256.537H202.269V250.522C202.269 249.811 202.084 249.254 201.713 248.854C201.343 248.449 200.833 248.247 200.186 248.247C199.742 248.247 199.348 248.343 199.003 248.534C198.662 248.726 198.392 249.007 198.191 249.378C197.995 249.744 197.897 250.188 197.897 250.708ZM210.879 256.735C209.929 256.735 209.111 256.52 208.425 256.09C207.743 255.655 207.219 255.056 206.852 254.294C206.486 253.531 206.303 252.657 206.303 251.673C206.303 250.676 206.49 249.796 206.865 249.033C207.24 248.266 207.769 247.667 208.45 247.237C209.132 246.806 209.936 246.591 210.86 246.591C211.606 246.591 212.271 246.73 212.855 247.007C213.438 247.279 213.909 247.663 214.267 248.157C214.629 248.651 214.845 249.229 214.913 249.889H213.053C212.95 249.429 212.716 249.033 212.35 248.7C211.987 248.368 211.502 248.202 210.892 248.202C210.36 248.202 209.893 248.343 209.492 248.624C209.096 248.901 208.787 249.297 208.566 249.813C208.344 250.324 208.233 250.929 208.233 251.628C208.233 252.344 208.342 252.962 208.559 253.482C208.776 254.002 209.083 254.404 209.48 254.69C209.88 254.975 210.351 255.118 210.892 255.118C211.254 255.118 211.583 255.052 211.877 254.92C212.175 254.784 212.424 254.59 212.624 254.338C212.829 254.087 212.972 253.784 213.053 253.431H214.913C214.845 254.066 214.638 254.632 214.293 255.131C213.948 255.629 213.485 256.021 212.906 256.307C212.33 256.593 211.655 256.735 210.879 256.735ZM218.165 260.219C217.879 260.219 217.619 260.195 217.385 260.149C217.151 260.106 216.976 260.059 216.861 260.008L217.321 258.442C217.67 258.536 217.982 258.576 218.254 258.563C218.527 258.551 218.768 258.448 218.977 258.257C219.19 258.065 219.377 257.752 219.539 257.317L219.776 256.665L216.183 246.719H218.229L220.715 254.338H220.817L223.304 246.719H225.356L221.31 257.847C221.122 258.359 220.884 258.791 220.594 259.145C220.304 259.503 219.959 259.771 219.558 259.95C219.158 260.129 218.693 260.219 218.165 260.219Z" fill="#101010"/>
<rect x="459.5" y="0.537109" width="168" height="51" rx="25.5" fill="white"/>
<rect x="459.5" y="0.537109" width="168" height="51" rx="25.5" stroke="#D2DADD"/>
<circle cx="482.5" cy="26.0371" r="5" fill="#2E90FA"/>
<path d="M506.411 19.4462H509.568V27.8901C509.568 28.8659 509.336 29.7161 508.871 30.4405C508.407 31.1607 507.759 31.7189 506.928 32.1152C506.097 32.5073 505.132 32.7033 504.033 32.7033C502.92 32.7033 501.949 32.5073 501.118 32.1152C500.287 31.7189 499.641 31.1607 499.181 30.4405C498.721 29.7161 498.491 28.8659 498.491 27.8901V19.4462H501.655V27.6152C501.655 28.0669 501.753 28.4696 501.949 28.8233C502.149 29.177 502.428 29.454 502.786 29.6543C503.144 29.8546 503.56 29.9547 504.033 29.9547C504.506 29.9547 504.919 29.8546 505.273 29.6543C505.631 29.454 505.91 29.177 506.11 28.8233C506.31 28.4696 506.411 28.0669 506.411 27.6152V19.4462ZM522.394 25.1607V26.8226H516.59V25.1607H522.394ZM538.276 19.4462H540.258V28.0563C540.258 28.9725 540.043 29.7843 539.612 30.4917C539.182 31.1948 538.577 31.7488 537.797 32.1536C537.017 32.5542 536.103 32.7544 535.055 32.7544C534.011 32.7544 533.099 32.5542 532.319 32.1536C531.539 31.7488 530.934 31.1948 530.504 30.4917C530.073 29.7843 529.858 28.9725 529.858 28.0563V19.4462H531.833V27.8965C531.833 28.4888 531.963 29.0151 532.223 29.4753C532.487 29.9355 532.86 30.2978 533.342 30.562C533.823 30.8219 534.394 30.9519 535.055 30.9519C535.72 30.9519 536.293 30.8219 536.774 30.562C537.26 30.2978 537.631 29.9355 537.887 29.4753C538.146 29.0151 538.276 28.4888 538.276 27.8965V19.4462ZM550.333 25.1159L548.601 25.4228C548.529 25.2012 548.414 24.9902 548.256 24.7899C548.103 24.5897 547.894 24.4256 547.63 24.2978C547.365 24.1699 547.035 24.106 546.639 24.106C546.098 24.106 545.646 24.2274 545.284 24.4703C544.922 24.709 544.74 25.0179 544.74 25.3972C544.74 25.7253 544.862 25.9895 545.105 26.1898C545.348 26.3901 545.74 26.5542 546.281 26.682L547.841 27.0399C548.744 27.2488 549.417 27.5705 549.86 28.0051C550.304 28.4398 550.525 29.0044 550.525 29.699C550.525 30.2871 550.355 30.8113 550.014 31.2715C549.677 31.7275 549.206 32.0854 548.601 32.3453C548 32.6053 547.304 32.7353 546.511 32.7353C545.412 32.7353 544.515 32.5009 543.82 32.0321C543.125 31.5591 542.699 30.888 542.542 30.0186L544.389 29.7374C544.504 30.2189 544.74 30.5833 545.098 30.8304C545.456 31.0733 545.923 31.1948 546.498 31.1948C547.125 31.1948 547.625 31.0648 548 30.8049C548.375 30.5407 548.563 30.2189 548.563 29.8397C548.563 29.5328 548.448 29.275 548.218 29.0662C547.992 28.8574 547.645 28.6998 547.176 28.5932L545.514 28.2289C544.598 28.0201 543.92 27.6877 543.481 27.2317C543.047 26.7757 542.829 26.1983 542.829 25.4995C542.829 24.9199 542.991 24.4128 543.315 23.9782C543.639 23.5435 544.086 23.2047 544.657 22.9618C545.228 22.7147 545.882 22.5911 546.62 22.5911C547.681 22.5911 548.516 22.8212 549.125 23.2814C549.735 23.7374 550.137 24.3489 550.333 25.1159ZM555.484 32.7544C554.862 32.7544 554.299 32.6394 553.796 32.4093C553.294 32.1749 552.895 31.8361 552.601 31.3929C552.311 30.9498 552.166 30.4064 552.166 29.763C552.166 29.209 552.273 28.753 552.486 28.3951C552.699 28.0371 552.987 27.7537 553.349 27.5449C553.711 27.3361 554.116 27.1784 554.563 27.0719C555.011 26.9654 555.467 26.8844 555.931 26.829C556.519 26.7608 556.997 26.7054 557.363 26.6628C557.73 26.6159 557.996 26.5414 558.162 26.4391C558.328 26.3368 558.411 26.1706 558.411 25.9405V25.8958C558.411 25.3375 558.254 24.905 557.938 24.5982C557.627 24.2914 557.163 24.138 556.545 24.138C555.901 24.138 555.394 24.2807 555.024 24.5662C554.657 24.8475 554.404 25.1607 554.263 25.5059L552.467 25.0968C552.68 24.5002 552.991 24.0186 553.4 23.6522C553.813 23.2814 554.289 23.013 554.825 22.8468C555.362 22.6763 555.927 22.5911 556.519 22.5911C556.911 22.5911 557.327 22.638 557.766 22.7317C558.209 22.8212 558.622 22.9874 559.006 23.2303C559.394 23.4732 559.711 23.8205 559.958 24.2722C560.205 24.7196 560.329 25.3013 560.329 26.0172V32.5371H558.463V31.1948H558.386C558.262 31.4419 558.077 31.6848 557.83 31.9235C557.583 32.1621 557.265 32.3603 556.877 32.5179C556.49 32.6756 556.025 32.7544 555.484 32.7544ZM555.899 31.2203C556.428 31.2203 556.879 31.1159 557.254 30.9071C557.634 30.6983 557.921 30.4256 558.117 30.089C558.318 29.748 558.418 29.3837 558.418 28.9959V27.7303C558.35 27.7985 558.218 27.8624 558.021 27.9221C557.83 27.9775 557.61 28.0265 557.363 28.0691C557.116 28.1074 556.875 28.1436 556.641 28.1777C556.406 28.2076 556.21 28.2331 556.053 28.2544C555.682 28.3013 555.343 28.3801 555.036 28.4909C554.734 28.6017 554.491 28.7615 554.308 28.9703C554.129 29.1749 554.039 29.4476 554.039 29.7885C554.039 30.2615 554.214 30.6195 554.563 30.8624C554.913 31.101 555.358 31.2203 555.899 31.2203ZM563.028 32.5371V19.4462H564.939V24.3105H565.054C565.165 24.106 565.325 23.8695 565.534 23.601C565.743 23.3326 566.032 23.0982 566.403 22.8979C566.774 22.6934 567.264 22.5911 567.873 22.5911C568.666 22.5911 569.373 22.7914 569.995 23.1919C570.618 23.5925 571.105 24.1699 571.459 24.9242C571.817 25.6784 571.996 26.5861 571.996 27.6472C571.996 28.7083 571.819 29.6181 571.466 30.3766C571.112 31.1309 570.626 31.7125 570.008 32.1216C569.39 32.5265 568.685 32.7289 567.892 32.7289C567.296 32.7289 566.808 32.6287 566.429 32.4284C566.054 32.2282 565.76 31.9938 565.547 31.7253C565.333 31.4569 565.169 31.2182 565.054 31.0094H564.895V32.5371H563.028ZM564.901 27.628C564.901 28.3184 565.001 28.9235 565.201 29.4434C565.402 29.9632 565.691 30.3702 566.071 30.6642C566.45 30.954 566.914 31.0989 567.464 31.0989C568.035 31.0989 568.512 30.9476 568.896 30.6451C569.279 30.3382 569.569 29.9228 569.765 29.3986C569.966 28.8745 570.066 28.2843 570.066 27.628C570.066 26.9803 569.968 26.3986 569.772 25.883C569.58 25.3674 569.29 24.9604 568.902 24.6621C568.519 24.3638 568.039 24.2147 567.464 24.2147C566.91 24.2147 566.441 24.3574 566.058 24.6429C565.679 24.9284 565.391 25.3269 565.195 25.8382C564.999 26.3496 564.901 26.9462 564.901 27.628ZM574.142 32.5371V22.7189H576.053V32.5371H574.142ZM575.107 21.204C574.775 21.204 574.49 21.0932 574.251 20.8716C574.017 20.6458 573.899 20.3773 573.899 20.0662C573.899 19.7509 574.017 19.4824 574.251 19.2608C574.49 19.035 574.775 18.9221 575.107 18.9221C575.44 18.9221 575.723 19.035 575.958 19.2608C576.196 19.4824 576.316 19.7509 576.316 20.0662C576.316 20.3773 576.196 20.6458 575.958 20.8716C575.723 21.0932 575.44 21.204 575.107 21.204ZM580.536 19.4462V32.5371H578.625V19.4462H580.536ZM583.107 32.5371V22.7189H585.018V32.5371H583.107ZM584.072 21.204C583.74 21.204 583.454 21.0932 583.216 20.8716C582.981 20.6458 582.864 20.3773 582.864 20.0662C582.864 19.7509 582.981 19.4824 583.216 19.2608C583.454 19.035 583.74 18.9221 584.072 18.9221C584.405 18.9221 584.688 19.035 584.922 19.2608C585.161 19.4824 585.28 19.7509 585.28 20.0662C585.28 20.3773 585.161 20.6458 584.922 20.8716C584.688 21.0932 584.405 21.204 584.072 21.204ZM592.173 22.7189V24.253H586.81V22.7189H592.173ZM588.248 20.3667H590.159V29.6543C590.159 30.025 590.214 30.3042 590.325 30.4917C590.436 30.6749 590.579 30.8006 590.754 30.8688C590.933 30.9327 591.126 30.9647 591.335 30.9647C591.489 30.9647 591.623 30.954 591.738 30.9327C591.853 30.9114 591.942 30.8944 592.006 30.8816L592.352 32.4604C592.241 32.503 592.083 32.5456 591.879 32.5882C591.674 32.6351 591.418 32.6607 591.112 32.665C590.609 32.6735 590.14 32.584 589.705 32.3965C589.271 32.209 588.919 31.9192 588.651 31.5272C588.382 31.1351 588.248 30.6429 588.248 30.0506V20.3667ZM595.495 36.2189C595.209 36.2189 594.949 36.1955 594.715 36.1486C594.481 36.106 594.306 36.0591 594.191 36.008L594.651 34.4419C595.001 34.5357 595.312 34.5762 595.584 34.5634C595.857 34.5506 596.098 34.4483 596.307 34.2566C596.52 34.0648 596.707 33.7516 596.869 33.3169L597.106 32.665L593.513 22.7189H595.559L598.045 30.3382H598.148L600.634 22.7189H602.686L598.64 33.8475C598.452 34.3588 598.214 34.7914 597.924 35.1451C597.634 35.503 597.289 35.7715 596.888 35.9505C596.488 36.1294 596.023 36.2189 595.495 36.2189Z" fill="#101010"/>
<path d="M275 120.691C329.594 120.691 390.639 120.691 448.002 120.691C473.407 120.691 494 141.286 494 166.691V202.191" stroke="url(#paint3_linear_940_979)" stroke-width="2"/>
<path d="M812 134.691C757.406 134.691 696.361 134.691 638.998 134.691C613.593 134.691 593 155.286 593 180.691V216.191" stroke="url(#paint4_linear_940_979)" stroke-width="2"/>
<rect x="142" y="94.5371" width="175" height="51" rx="25.5" fill="white"/>
<rect x="142" y="94.5371" width="175" height="51" rx="25.5" stroke="#D2DADD"/>
<circle cx="165" cy="120.037" r="5" fill="#2E90FA"/>
<path d="M180.991 126.537V113.446H186.398C187.379 113.446 188.224 113.623 188.936 113.977C189.652 114.326 190.204 114.829 190.592 115.485C190.979 116.137 191.173 116.911 191.173 117.806C191.173 118.713 190.975 119.485 190.579 120.119C190.183 120.75 189.62 121.232 188.891 121.564C188.163 121.892 187.3 122.056 186.303 122.056H182.883V119.563H185.714C186.192 119.563 186.59 119.502 186.91 119.378C187.234 119.25 187.479 119.058 187.645 118.803C187.811 118.543 187.894 118.21 187.894 117.806C187.894 117.401 187.811 117.066 187.645 116.802C187.479 116.534 187.234 116.333 186.91 116.201C186.586 116.065 186.188 115.997 185.714 115.997H184.155V126.537H180.991ZM188.361 120.554L191.621 126.537H188.169L184.973 120.554H188.361ZM203.751 119.161V120.823H197.947V119.161H203.751ZM211.216 126.537V113.446H215.882C216.896 113.446 217.738 113.621 218.407 113.97C219.08 114.32 219.583 114.803 219.915 115.421C220.248 116.035 220.414 116.744 220.414 117.55C220.414 118.351 220.245 119.056 219.909 119.666C219.576 120.271 219.074 120.742 218.4 121.078C217.731 121.415 216.89 121.583 215.875 121.583H212.341V119.883H215.696C216.336 119.883 216.855 119.791 217.256 119.608C217.661 119.425 217.957 119.159 218.145 118.809C218.332 118.46 218.426 118.04 218.426 117.55C218.426 117.056 218.33 116.627 218.138 116.265C217.951 115.903 217.654 115.626 217.25 115.434C216.849 115.238 216.323 115.14 215.671 115.14H213.191V126.537H211.216ZM217.678 120.631L220.912 126.537H218.662L215.492 120.631H217.678ZM226.772 126.735C225.805 126.735 224.972 126.529 224.273 126.115C223.578 125.698 223.041 125.112 222.662 124.357C222.287 123.599 222.1 122.71 222.1 121.692C222.1 120.686 222.287 119.8 222.662 119.033C223.041 118.266 223.57 117.667 224.247 117.237C224.929 116.806 225.726 116.591 226.638 116.591C227.192 116.591 227.729 116.683 228.249 116.866C228.769 117.049 229.235 117.337 229.649 117.729C230.062 118.121 230.388 118.63 230.627 119.257C230.865 119.879 230.985 120.635 230.985 121.526V122.203H223.18V120.771H229.112C229.112 120.269 229.009 119.823 228.805 119.436C228.6 119.044 228.313 118.735 227.942 118.509C227.575 118.283 227.145 118.17 226.651 118.17C226.114 118.17 225.645 118.302 225.244 118.566C224.848 118.826 224.541 119.167 224.324 119.589C224.111 120.007 224.004 120.46 224.004 120.95V122.069C224.004 122.725 224.119 123.284 224.35 123.744C224.584 124.204 224.91 124.556 225.328 124.798C225.745 125.037 226.233 125.156 226.791 125.156C227.154 125.156 227.484 125.105 227.782 125.003C228.08 124.896 228.338 124.739 228.556 124.53C228.773 124.321 228.939 124.063 229.054 123.757L230.863 124.083C230.718 124.615 230.458 125.082 230.083 125.482C229.713 125.879 229.246 126.188 228.683 126.409C228.125 126.627 227.488 126.735 226.772 126.735ZM235.016 113.446V126.537H233.105V113.446H235.016ZM237.588 126.537V116.719H239.499V126.537H237.588ZM238.553 115.204C238.22 115.204 237.935 115.093 237.696 114.872C237.462 114.646 237.345 114.377 237.345 114.066C237.345 113.751 237.462 113.482 237.696 113.261C237.935 113.035 238.22 112.922 238.553 112.922C238.885 112.922 239.169 113.035 239.403 113.261C239.642 113.482 239.761 113.751 239.761 114.066C239.761 114.377 239.642 114.646 239.403 114.872C239.169 115.093 238.885 115.204 238.553 115.204ZM244.927 126.754C244.305 126.754 243.743 126.639 243.24 126.409C242.737 126.175 242.338 125.836 242.044 125.393C241.755 124.95 241.61 124.406 241.61 123.763C241.61 123.209 241.716 122.753 241.929 122.395C242.142 122.037 242.43 121.754 242.792 121.545C243.154 121.336 243.559 121.178 244.007 121.072C244.454 120.965 244.91 120.884 245.375 120.829C245.963 120.761 246.44 120.705 246.806 120.663C247.173 120.616 247.439 120.541 247.605 120.439C247.772 120.337 247.855 120.171 247.855 119.941V119.896C247.855 119.338 247.697 118.905 247.382 118.598C247.071 118.291 246.606 118.138 245.988 118.138C245.345 118.138 244.838 118.281 244.467 118.566C244.1 118.847 243.847 119.161 243.706 119.506L241.91 119.097C242.123 118.5 242.434 118.019 242.843 117.652C243.257 117.281 243.732 117.013 244.269 116.847C244.806 116.676 245.37 116.591 245.963 116.591C246.355 116.591 246.77 116.638 247.209 116.732C247.652 116.821 248.066 116.987 248.449 117.23C248.837 117.473 249.154 117.82 249.402 118.272C249.649 118.72 249.772 119.301 249.772 120.017V126.537H247.906V125.195H247.829C247.706 125.442 247.52 125.685 247.273 125.923C247.026 126.162 246.708 126.36 246.321 126.518C245.933 126.676 245.468 126.754 244.927 126.754ZM245.343 125.22C245.871 125.22 246.323 125.116 246.698 124.907C247.077 124.698 247.365 124.426 247.561 124.089C247.761 123.748 247.861 123.384 247.861 122.996V121.73C247.793 121.798 247.661 121.862 247.465 121.922C247.273 121.977 247.054 122.026 246.806 122.069C246.559 122.107 246.319 122.144 246.084 122.178C245.85 122.208 245.654 122.233 245.496 122.254C245.125 122.301 244.787 122.38 244.48 122.491C244.177 122.602 243.934 122.762 243.751 122.97C243.572 123.175 243.483 123.448 243.483 123.789C243.483 124.262 243.657 124.619 244.007 124.862C244.356 125.101 244.801 125.22 245.343 125.22ZM252.471 126.537V113.446H254.383V118.311H254.498C254.608 118.106 254.768 117.869 254.977 117.601C255.186 117.333 255.476 117.098 255.846 116.898C256.217 116.693 256.707 116.591 257.317 116.591C258.109 116.591 258.817 116.791 259.439 117.192C260.061 117.593 260.549 118.17 260.903 118.924C261.26 119.678 261.439 120.586 261.439 121.647C261.439 122.708 261.263 123.618 260.909 124.377C260.555 125.131 260.069 125.713 259.452 126.122C258.834 126.526 258.128 126.729 257.336 126.729C256.739 126.729 256.251 126.629 255.872 126.428C255.497 126.228 255.203 125.994 254.99 125.725C254.777 125.457 254.613 125.218 254.498 125.009H254.338V126.537H252.471ZM254.344 121.628C254.344 122.318 254.444 122.923 254.645 123.443C254.845 123.963 255.135 124.37 255.514 124.664C255.893 124.954 256.358 125.099 256.907 125.099C257.479 125.099 257.956 124.948 258.339 124.645C258.723 124.338 259.013 123.923 259.209 123.399C259.409 122.874 259.509 122.284 259.509 121.628C259.509 120.98 259.411 120.399 259.215 119.883C259.023 119.367 258.733 118.96 258.346 118.662C257.962 118.364 257.483 118.215 256.907 118.215C256.354 118.215 255.885 118.357 255.501 118.643C255.122 118.928 254.834 119.327 254.638 119.838C254.442 120.35 254.344 120.946 254.344 121.628ZM263.586 126.537V116.719H265.497V126.537H263.586ZM264.551 115.204C264.218 115.204 263.933 115.093 263.694 114.872C263.46 114.646 263.343 114.377 263.343 114.066C263.343 113.751 263.46 113.482 263.694 113.261C263.933 113.035 264.218 112.922 264.551 112.922C264.883 112.922 265.167 113.035 265.401 113.261C265.64 113.482 265.759 113.751 265.759 114.066C265.759 114.377 265.64 114.646 265.401 114.872C265.167 115.093 264.883 115.204 264.551 115.204ZM269.979 113.446V126.537H268.068V113.446H269.979ZM272.55 126.537V116.719H274.462V126.537H272.55ZM273.516 115.204C273.183 115.204 272.898 115.093 272.659 114.872C272.425 114.646 272.308 114.377 272.308 114.066C272.308 113.751 272.425 113.482 272.659 113.261C272.898 113.035 273.183 112.922 273.516 112.922C273.848 112.922 274.131 113.035 274.366 113.261C274.604 113.482 274.724 113.751 274.724 114.066C274.724 114.377 274.604 114.646 274.366 114.872C274.131 115.093 273.848 115.204 273.516 115.204ZM281.616 116.719V118.253H276.253V116.719H281.616ZM277.691 114.367H279.602V123.654C279.602 124.025 279.658 124.304 279.769 124.492C279.879 124.675 280.022 124.801 280.197 124.869C280.376 124.933 280.57 124.965 280.779 124.965C280.932 124.965 281.066 124.954 281.181 124.933C281.296 124.911 281.386 124.894 281.45 124.882L281.795 126.46C281.684 126.503 281.526 126.546 281.322 126.588C281.117 126.635 280.862 126.661 280.555 126.665C280.052 126.673 279.583 126.584 279.149 126.396C278.714 126.209 278.362 125.919 278.094 125.527C277.825 125.135 277.691 124.643 277.691 124.051V114.367ZM284.938 130.219C284.653 130.219 284.393 130.195 284.158 130.149C283.924 130.106 283.749 130.059 283.634 130.008L284.094 128.442C284.444 128.536 284.755 128.576 285.028 128.563C285.3 128.551 285.541 128.448 285.75 128.257C285.963 128.065 286.151 127.752 286.312 127.317L286.549 126.665L282.957 116.719H285.002L287.489 124.338H287.591L290.077 116.719H292.129L288.083 127.847C287.896 128.359 287.657 128.791 287.367 129.145C287.077 129.503 286.732 129.771 286.332 129.95C285.931 130.129 285.467 130.219 284.938 130.219Z" fill="#101010"/>
<rect x="740" y="107.537" width="181" height="51" rx="25.5" fill="white"/>
<rect x="740" y="107.537" width="181" height="51" rx="25.5" stroke="#D2DADD"/>
<circle cx="763" cy="133.037" r="5" fill="#2E90FA"/>
<path d="M786.067 130.371C786.024 129.902 785.835 129.538 785.498 129.278C785.165 129.014 784.69 128.882 784.072 128.882C783.663 128.882 783.322 128.935 783.05 129.041C782.777 129.148 782.572 129.295 782.436 129.482C782.3 129.666 782.229 129.877 782.225 130.115C782.217 130.311 782.255 130.484 782.34 130.633C782.43 130.782 782.558 130.914 782.724 131.029C782.894 131.14 783.099 131.238 783.337 131.323C783.576 131.409 783.844 131.483 784.143 131.547L785.268 131.803C785.915 131.943 786.487 132.131 786.981 132.365C787.479 132.6 787.897 132.879 788.234 133.203C788.575 133.526 788.832 133.899 789.007 134.321C789.182 134.743 789.271 135.216 789.276 135.74C789.271 136.567 789.063 137.276 788.649 137.869C788.236 138.461 787.641 138.915 786.866 139.23C786.094 139.546 785.163 139.703 784.072 139.703C782.977 139.703 782.023 139.539 781.209 139.211C780.395 138.883 779.762 138.384 779.31 137.715C778.859 137.046 778.626 136.2 778.614 135.178H781.643C781.669 135.6 781.782 135.951 781.982 136.232C782.183 136.514 782.457 136.727 782.807 136.872C783.161 137.017 783.57 137.089 784.034 137.089C784.46 137.089 784.822 137.031 785.121 136.916C785.423 136.801 785.656 136.642 785.817 136.437C785.979 136.232 786.063 135.998 786.067 135.734C786.063 135.487 785.986 135.276 785.837 135.101C785.688 134.922 785.457 134.769 785.146 134.641C784.839 134.509 784.447 134.387 783.97 134.276L782.602 133.957C781.469 133.697 780.576 133.277 779.924 132.698C779.272 132.114 778.948 131.325 778.952 130.333C778.948 129.523 779.165 128.813 779.604 128.204C780.043 127.595 780.651 127.119 781.426 126.779C782.202 126.438 783.086 126.267 784.079 126.267C785.093 126.267 785.973 126.44 786.719 126.785C787.469 127.126 788.05 127.605 788.464 128.223C788.877 128.841 789.088 129.557 789.097 130.371H786.067ZM801.716 132.161V133.823H795.912V132.161H801.716ZM816.32 129.885C816.252 129.28 815.971 128.811 815.477 128.479C814.982 128.142 814.36 127.974 813.61 127.974C813.073 127.974 812.609 128.059 812.217 128.23C811.825 128.396 811.52 128.626 811.303 128.92C811.089 129.21 810.983 129.54 810.983 129.911C810.983 130.222 811.055 130.49 811.2 130.716C811.349 130.942 811.543 131.132 811.782 131.285C812.025 131.434 812.285 131.56 812.562 131.662C812.839 131.76 813.105 131.841 813.361 131.905L814.639 132.237C815.057 132.34 815.485 132.478 815.924 132.653C816.363 132.828 816.77 133.058 817.145 133.343C817.52 133.629 817.822 133.982 818.053 134.404C818.287 134.826 818.404 135.331 818.404 135.919C818.404 136.661 818.212 137.319 817.829 137.894C817.45 138.47 816.898 138.923 816.173 139.256C815.453 139.588 814.582 139.754 813.559 139.754C812.579 139.754 811.731 139.599 811.015 139.288C810.299 138.977 809.739 138.536 809.334 137.965C808.929 137.389 808.705 136.708 808.663 135.919H810.644C810.683 136.392 810.836 136.786 811.104 137.102C811.377 137.413 811.724 137.645 812.146 137.798C812.572 137.948 813.039 138.022 813.546 138.022C814.104 138.022 814.601 137.935 815.036 137.76C815.474 137.581 815.82 137.334 816.071 137.019C816.322 136.699 816.448 136.326 816.448 135.9C816.448 135.512 816.337 135.195 816.116 134.948C815.898 134.7 815.602 134.496 815.227 134.334C814.857 134.172 814.437 134.029 813.968 133.906L812.421 133.484C811.373 133.198 810.542 132.779 809.928 132.225C809.319 131.671 809.014 130.938 809.014 130.026C809.014 129.271 809.219 128.613 809.628 128.051C810.037 127.488 810.591 127.051 811.29 126.74C811.989 126.425 812.777 126.267 813.655 126.267C814.541 126.267 815.323 126.423 816.001 126.734C816.683 127.045 817.219 127.473 817.612 128.019C818.004 128.56 818.208 129.182 818.225 129.885H816.32ZM824.747 139.735C823.796 139.735 822.978 139.52 822.292 139.09C821.61 138.655 821.086 138.056 820.72 137.294C820.353 136.531 820.17 135.657 820.17 134.673C820.17 133.676 820.357 132.796 820.732 132.033C821.107 131.266 821.636 130.667 822.318 130.237C822.999 129.806 823.803 129.591 824.727 129.591C825.473 129.591 826.138 129.73 826.722 130.007C827.306 130.279 827.776 130.663 828.134 131.157C828.497 131.651 828.712 132.229 828.78 132.889H826.92C826.818 132.429 826.583 132.033 826.217 131.7C825.855 131.368 825.369 131.202 824.759 131.202C824.227 131.202 823.76 131.343 823.36 131.624C822.963 131.901 822.654 132.297 822.433 132.813C822.211 133.324 822.1 133.929 822.1 134.628C822.1 135.344 822.209 135.962 822.426 136.482C822.644 137.002 822.95 137.404 823.347 137.69C823.747 137.975 824.218 138.118 824.759 138.118C825.122 138.118 825.45 138.052 825.744 137.92C826.042 137.784 826.291 137.59 826.492 137.338C826.696 137.087 826.839 136.784 826.92 136.431H828.78C828.712 137.066 828.505 137.632 828.16 138.131C827.815 138.629 827.352 139.021 826.773 139.307C826.198 139.593 825.522 139.735 824.747 139.735ZM833.681 139.754C833.059 139.754 832.496 139.639 831.994 139.409C831.491 139.175 831.092 138.836 830.798 138.393C830.509 137.95 830.364 137.406 830.364 136.763C830.364 136.209 830.47 135.753 830.683 135.395C830.896 135.037 831.184 134.754 831.546 134.545C831.908 134.336 832.313 134.178 832.761 134.072C833.208 133.965 833.664 133.884 834.129 133.829C834.717 133.761 835.194 133.705 835.56 133.663C835.927 133.616 836.193 133.541 836.359 133.439C836.526 133.337 836.609 133.171 836.609 132.941V132.896C836.609 132.338 836.451 131.905 836.136 131.598C835.825 131.291 835.36 131.138 834.742 131.138C834.099 131.138 833.592 131.281 833.221 131.566C832.854 131.847 832.601 132.161 832.46 132.506L830.664 132.097C830.877 131.5 831.188 131.019 831.597 130.652C832.011 130.281 832.486 130.013 833.023 129.847C833.56 129.676 834.124 129.591 834.717 129.591C835.109 129.591 835.524 129.638 835.963 129.732C836.406 129.821 836.82 129.987 837.203 130.23C837.591 130.473 837.908 130.82 838.156 131.272C838.403 131.72 838.526 132.301 838.526 133.017V139.537H836.66V138.195H836.583C836.46 138.442 836.274 138.685 836.027 138.923C835.78 139.162 835.462 139.36 835.075 139.518C834.687 139.676 834.222 139.754 833.681 139.754ZM834.097 138.22C834.625 138.22 835.077 138.116 835.452 137.907C835.831 137.698 836.119 137.426 836.315 137.089C836.515 136.748 836.615 136.384 836.615 135.996V134.73C836.547 134.798 836.415 134.862 836.219 134.922C836.027 134.977 835.808 135.026 835.56 135.069C835.313 135.107 835.072 135.144 834.838 135.178C834.604 135.208 834.408 135.233 834.25 135.254C833.879 135.301 833.54 135.38 833.234 135.491C832.931 135.602 832.688 135.762 832.505 135.97C832.326 136.175 832.237 136.448 832.237 136.789C832.237 137.262 832.411 137.619 832.761 137.862C833.11 138.101 833.555 138.22 834.097 138.22ZM842.983 126.446V139.537H841.072V126.446H842.983ZM848.412 139.754C847.789 139.754 847.227 139.639 846.724 139.409C846.221 139.175 845.823 138.836 845.529 138.393C845.239 137.95 845.094 137.406 845.094 136.763C845.094 136.209 845.201 135.753 845.414 135.395C845.627 135.037 845.914 134.754 846.277 134.545C846.639 134.336 847.044 134.178 847.491 134.072C847.939 133.965 848.395 133.884 848.859 133.829C849.447 133.761 849.924 133.705 850.291 133.663C850.657 133.616 850.924 133.541 851.09 133.439C851.256 133.337 851.339 133.171 851.339 132.941V132.896C851.339 132.338 851.181 131.905 850.866 131.598C850.555 131.291 850.091 131.138 849.473 131.138C848.829 131.138 848.322 131.281 847.951 131.566C847.585 131.847 847.331 132.161 847.191 132.506L845.395 132.097C845.608 131.5 845.919 131.019 846.328 130.652C846.741 130.281 847.216 130.013 847.753 129.847C848.29 129.676 848.855 129.591 849.447 129.591C849.839 129.591 850.255 129.638 850.694 129.732C851.137 129.821 851.55 129.987 851.934 130.23C852.321 130.473 852.639 130.82 852.886 131.272C853.133 131.72 853.257 132.301 853.257 133.017V139.537H851.39V138.195H851.314C851.19 138.442 851.005 138.685 850.757 138.923C850.51 139.162 850.193 139.36 849.805 139.518C849.417 139.676 848.953 139.754 848.412 139.754ZM848.827 138.22C849.355 138.22 849.807 138.116 850.182 137.907C850.561 137.698 850.849 137.426 851.045 137.089C851.245 136.748 851.346 136.384 851.346 135.996V134.73C851.277 134.798 851.145 134.862 850.949 134.922C850.757 134.977 850.538 135.026 850.291 135.069C850.044 135.107 849.803 135.144 849.569 135.178C849.334 135.208 849.138 135.233 848.98 135.254C848.61 135.301 848.271 135.38 847.964 135.491C847.662 135.602 847.419 135.762 847.235 135.97C847.056 136.175 846.967 136.448 846.967 136.789C846.967 137.262 847.142 137.619 847.491 137.862C847.841 138.101 848.286 138.22 848.827 138.22ZM855.956 139.537V126.446H857.867V131.311H857.982C858.093 131.106 858.253 130.869 858.461 130.601C858.67 130.333 858.96 130.098 859.331 129.898C859.702 129.693 860.192 129.591 860.801 129.591C861.594 129.591 862.301 129.791 862.923 130.192C863.545 130.593 864.033 131.17 864.387 131.924C864.745 132.678 864.924 133.586 864.924 134.647C864.924 135.708 864.747 136.618 864.393 137.377C864.04 138.131 863.554 138.713 862.936 139.122C862.318 139.526 861.613 139.729 860.82 139.729C860.224 139.729 859.736 139.629 859.356 139.428C858.981 139.228 858.687 138.994 858.474 138.725C858.261 138.457 858.097 138.218 857.982 138.009H857.822V139.537H855.956ZM857.829 134.628C857.829 135.318 857.929 135.923 858.129 136.443C858.329 136.963 858.619 137.37 858.998 137.664C859.378 137.954 859.842 138.099 860.392 138.099C860.963 138.099 861.44 137.948 861.824 137.645C862.207 137.338 862.497 136.923 862.693 136.399C862.893 135.874 862.993 135.284 862.993 134.628C862.993 133.98 862.895 133.399 862.699 132.883C862.508 132.367 862.218 131.96 861.83 131.662C861.447 131.364 860.967 131.215 860.392 131.215C859.838 131.215 859.369 131.357 858.986 131.643C858.606 131.928 858.319 132.327 858.123 132.838C857.927 133.35 857.829 133.946 857.829 134.628ZM867.07 139.537V129.719H868.981V139.537H867.07ZM868.035 128.204C867.703 128.204 867.417 128.093 867.179 127.872C866.944 127.646 866.827 127.377 866.827 127.066C866.827 126.751 866.944 126.482 867.179 126.261C867.417 126.035 867.703 125.922 868.035 125.922C868.368 125.922 868.651 126.035 868.885 126.261C869.124 126.482 869.243 126.751 869.243 127.066C869.243 127.377 869.124 127.646 868.885 127.872C868.651 128.093 868.368 128.204 868.035 128.204ZM873.464 126.446V139.537H871.552V126.446H873.464ZM876.035 139.537V129.719H877.946V139.537H876.035ZM877 128.204C876.668 128.204 876.382 128.093 876.143 127.872C875.909 127.646 875.792 127.377 875.792 127.066C875.792 126.751 875.909 126.482 876.143 126.261C876.382 126.035 876.668 125.922 877 125.922C877.332 125.922 877.616 126.035 877.85 126.261C878.089 126.482 878.208 126.751 878.208 127.066C878.208 127.377 878.089 127.646 877.85 127.872C877.616 128.093 877.332 128.204 877 128.204ZM885.1 129.719V131.253H879.737V129.719H885.1ZM881.176 127.367H883.087V136.654C883.087 137.025 883.142 137.304 883.253 137.492C883.364 137.675 883.507 137.801 883.681 137.869C883.86 137.933 884.054 137.965 884.263 137.965C884.416 137.965 884.551 137.954 884.666 137.933C884.781 137.911 884.87 137.894 884.934 137.882L885.279 139.46C885.169 139.503 885.011 139.546 884.806 139.588C884.602 139.635 884.346 139.661 884.039 139.665C883.536 139.673 883.068 139.584 882.633 139.396C882.198 139.209 881.847 138.919 881.578 138.527C881.31 138.135 881.176 137.643 881.176 137.051V127.367ZM888.423 143.219C888.137 143.219 887.877 143.195 887.643 143.149C887.408 143.106 887.234 143.059 887.119 143.008L887.579 141.442C887.928 141.536 888.239 141.576 888.512 141.563C888.785 141.551 889.026 141.448 889.234 141.257C889.447 141.065 889.635 140.752 889.797 140.317L890.033 139.665L886.441 129.719H888.487L890.973 137.338H891.075L893.562 129.719H895.614L891.567 140.847C891.38 141.359 891.141 141.791 890.852 142.145C890.562 142.503 890.217 142.771 889.816 142.95C889.415 143.129 888.951 143.219 888.423 143.219Z" fill="#101010"/>
<defs>
<filter id="filter0_d_940_979" x="382.5" y="195.191" width="321" height="183" filterUnits="userSpaceOnUse" color-interpolation-filters="sRGB">
<feFlood flood-opacity="0" result="BackgroundImageFix"/>
<feColorMatrix in="SourceAlpha" type="matrix" values="0 0 0 0 0 0 0 0 0 0 0 0 0 0 0 0 0 0 127 0" result="hardAlpha"/>
<feOffset/>
<feGaussianBlur stdDeviation="25"/>
<feComposite in2="hardAlpha" operator="out"/>
<feColorMatrix type="matrix" values="0 0 0 0 0 0 0 0 0 0.198718 0 0 0 0 0.476923 0 0 0 0.1 0"/>
<feBlend mode="normal" in2="BackgroundImageFix" result="effect1_dropShadow_940_979"/>
<feBlend mode="normal" in="SourceGraphic" in2="effect1_dropShadow_940_979" result="shape"/>
</filter>
<linearGradient id="paint0_linear_940_979" x1="543.5" y1="202.691" x2="543.5" y2="48.6914" gradientUnits="userSpaceOnUse">
<stop stop-color="#2EBEFA" stop-opacity="0"/>
<stop offset="0.472275" stop-color="#2EBEFA"/>
<stop offset="0.97056" stop-color="#2E90FA"/>
<stop offset="1" stop-color="#2E90FA" stop-opacity="0"/>
</linearGradient>
<linearGradient id="paint1_linear_940_979" x1="843.5" y1="250.691" x2="711.685" y2="215.141" gradientUnits="userSpaceOnUse">
<stop offset="0.0294395" stop-color="#2E90FA"/>
<stop offset="0.527725" stop-color="#2EBEFA"/>
<stop offset="1" stop-color="#2EBEFA" stop-opacity="0"/>
</linearGradient>
<linearGradient id="paint2_linear_940_979" x1="248" y1="250.691" x2="389.409" y2="209.425" gradientUnits="userSpaceOnUse">
<stop offset="0.0294395" stop-color="#2E90FA"/>
<stop offset="0.527725" stop-color="#2EBEFA"/>
<stop offset="1" stop-color="#2EBEFA" stop-opacity="0"/>
</linearGradient>
<linearGradient id="paint3_linear_940_979" x1="381" y1="114.691" x2="497" y2="205.191" gradientUnits="userSpaceOnUse">
<stop offset="0.0294395" stop-color="#2E90FA"/>
<stop offset="0.527725" stop-color="#2EBEFA"/>
<stop offset="1" stop-color="#2EBEFA" stop-opacity="0"/>
</linearGradient>
<linearGradient id="paint4_linear_940_979" x1="706" y1="128.691" x2="590" y2="219.191" gradientUnits="userSpaceOnUse">
<stop offset="0.0294395" stop-color="#2E90FA"/>
<stop offset="0.527725" stop-color="#2EBEFA"/>
<stop offset="1" stop-color="#2EBEFA" stop-opacity="0"/>
</linearGradient>
</defs>
</svg>
