<svg width="429" height="391" viewBox="0 0 429 391" fill="none" xmlns="http://www.w3.org/2000/svg">
<rect width="428" height="389" transform="translate(1 1)" fill="white"/>
<path d="M212.433 11.2051L212.433 221.082" stroke="#D2DADD" stroke-width="1.25926"/>
<path d="M212.852 170.841V41.5569" stroke="url(#paint0_linear_940_2211)" stroke-width="1.67901"/>
<rect x="142.753" y="1.13086" width="141.049" height="43.1481" rx="21.5741" fill="white"/>
<rect x="142.753" y="1.13086" width="141.049" height="43.1481" rx="21.5741" stroke="#D2DADD" stroke-width="0.839506"/>
<circle cx="162.062" cy="22.7049" r="4.19753" fill="#2E90FA"/>
<path d="M182.135 17.2152H184.786V24.3039C184.786 25.1231 184.591 25.8368 184.201 26.445C183.811 27.0496 183.267 27.5182 182.569 27.8509C181.872 28.18 181.061 28.3446 180.139 28.3446C179.205 28.3446 178.389 28.18 177.692 27.8509C176.994 27.5182 176.452 27.0496 176.066 26.445C175.679 25.8368 175.486 25.1231 175.486 24.3039V17.2152H178.142V24.0731C178.142 24.4523 178.225 24.7904 178.389 25.0873C178.557 25.3843 178.792 25.6168 179.092 25.7849C179.393 25.9531 179.741 26.0371 180.139 26.0371C180.536 26.0371 180.883 25.9531 181.18 25.7849C181.48 25.6168 181.714 25.3843 181.883 25.0873C182.051 24.7904 182.135 24.4523 182.135 24.0731V17.2152ZM195.553 22.0125V23.4077H190.68V22.0125H195.553ZM208.886 17.2152H210.55V24.4434C210.55 25.2125 210.369 25.8941 210.008 26.4879C209.647 27.0782 209.139 27.5433 208.484 27.8831C207.829 28.2194 207.062 28.3875 206.182 28.3875C205.305 28.3875 204.54 28.2194 203.885 27.8831C203.23 27.5433 202.722 27.0782 202.361 26.4879C202 25.8941 201.819 25.2125 201.819 24.4434V17.2152H203.477V24.3092C203.477 24.8065 203.586 25.2483 203.805 25.6347C204.026 26.0211 204.339 26.3251 204.744 26.5469C205.148 26.7652 205.627 26.8743 206.182 26.8743C206.74 26.8743 207.221 26.7652 207.625 26.5469C208.033 26.3251 208.344 26.0211 208.559 25.6347C208.777 25.2483 208.886 24.8065 208.886 24.3092V17.2152ZM219.008 21.975L217.554 22.2325C217.493 22.0465 217.397 21.8694 217.264 21.7013C217.136 21.5331 216.96 21.3954 216.738 21.2881C216.517 21.1808 216.239 21.1271 215.907 21.1271C215.452 21.1271 215.073 21.2291 214.769 21.433C214.465 21.6333 214.313 21.8927 214.313 22.2111C214.313 22.4865 214.415 22.7083 214.619 22.8765C214.823 23.0446 215.152 23.1824 215.606 23.2897L216.916 23.5902C217.674 23.7655 218.239 24.0356 218.611 24.4005C218.983 24.7654 219.169 25.2394 219.169 25.8225C219.169 26.3162 219.026 26.7562 218.74 27.1426C218.457 27.5254 218.062 27.8259 217.554 28.0441C217.05 28.2623 216.465 28.3714 215.799 28.3714C214.876 28.3714 214.123 28.1747 213.54 27.7812C212.957 27.3841 212.599 26.8206 212.467 26.0908L214.018 25.8547C214.114 26.259 214.313 26.5648 214.613 26.7723C214.914 26.9762 215.306 27.0782 215.789 27.0782C216.314 27.0782 216.735 26.9691 217.05 26.7508C217.364 26.529 217.522 26.259 217.522 25.9406C217.522 25.683 217.425 25.4665 217.232 25.2913C217.043 25.116 216.751 24.9836 216.357 24.8942L214.962 24.5883C214.193 24.413 213.624 24.134 213.256 23.7512C212.891 23.3684 212.708 22.8836 212.708 22.2969C212.708 21.8104 212.844 21.3847 213.116 21.0198C213.388 20.6549 213.764 20.3705 214.243 20.1666C214.723 19.9591 215.272 19.8553 215.891 19.8553C216.781 19.8553 217.483 20.0485 217.994 20.4349C218.506 20.8177 218.844 21.331 219.008 21.975ZM223.332 28.3875C222.81 28.3875 222.338 28.2909 221.915 28.0978C221.493 27.901 221.159 27.6166 220.912 27.2445C220.669 26.8725 220.547 26.4164 220.547 25.8762C220.547 25.4111 220.636 25.0283 220.815 24.7278C220.994 24.4273 221.236 24.1894 221.54 24.0141C221.844 23.8388 222.184 23.7064 222.559 23.617C222.935 23.5276 223.318 23.4596 223.708 23.4131C224.201 23.3559 224.602 23.3093 224.91 23.2736C225.217 23.2342 225.441 23.1716 225.581 23.0858C225.72 22.9999 225.79 22.8604 225.79 22.6672V22.6296C225.79 22.161 225.657 21.7979 225.393 21.5403C225.132 21.2827 224.742 21.1539 224.223 21.1539C223.683 21.1539 223.257 21.2738 222.946 21.5135C222.638 21.7496 222.425 22.0125 222.307 22.3023L220.799 21.9589C220.978 21.458 221.239 21.0538 221.583 20.7461C221.93 20.4349 222.329 20.2095 222.779 20.07C223.23 19.9269 223.704 19.8553 224.201 19.8553C224.531 19.8553 224.879 19.8947 225.248 19.9734C225.62 20.0485 225.967 20.188 226.289 20.3919C226.614 20.5959 226.881 20.8874 227.088 21.2666C227.296 21.6423 227.4 22.1306 227.4 22.7316V28.2051H225.833V27.0782H225.768C225.665 27.2857 225.509 27.4896 225.301 27.6899C225.094 27.8903 224.827 28.0566 224.502 28.189C224.176 28.3213 223.786 28.3875 223.332 28.3875ZM223.681 27.0996C224.124 27.0996 224.504 27.012 224.819 26.8367C225.137 26.6614 225.378 26.4325 225.543 26.1498C225.711 25.8636 225.795 25.5578 225.795 25.2322V24.1697C225.738 24.227 225.627 24.2806 225.462 24.3307C225.301 24.3772 225.117 24.4184 224.91 24.4541C224.702 24.4863 224.5 24.5167 224.303 24.5454C224.107 24.5704 223.942 24.5919 223.81 24.6097C223.498 24.6491 223.214 24.7153 222.956 24.8083C222.702 24.9013 222.499 25.0355 222.345 25.2108C222.194 25.3825 222.119 25.6114 222.119 25.8976C222.119 26.2947 222.266 26.5952 222.559 26.7991C222.853 26.9995 223.227 27.0996 223.681 27.0996ZM229.666 28.2051V17.2152H231.27V21.2988H231.367C231.46 21.1271 231.594 20.9286 231.769 20.7032C231.944 20.4778 232.188 20.281 232.499 20.1129C232.81 19.9412 233.221 19.8553 233.733 19.8553C234.398 19.8553 234.992 20.0235 235.515 20.3597C236.037 20.696 236.447 21.1808 236.743 21.814C237.044 22.4472 237.194 23.2092 237.194 24.1C237.194 24.9907 237.046 25.7545 236.749 26.3913C236.452 27.0245 236.044 27.5128 235.525 27.8563C235.007 28.1961 234.415 28.3661 233.749 28.3661C233.248 28.3661 232.839 28.282 232.52 28.1139C232.205 27.9457 231.959 27.749 231.78 27.5236C231.601 27.2982 231.463 27.0979 231.367 26.9226H231.232V28.2051H229.666ZM231.238 24.0839C231.238 24.6634 231.322 25.1714 231.49 25.6079C231.658 26.0443 231.901 26.3859 232.22 26.6328C232.538 26.8761 232.928 26.9977 233.39 26.9977C233.869 26.9977 234.27 26.8707 234.592 26.6167C234.914 26.3591 235.157 26.0103 235.321 25.5703C235.49 25.1303 235.574 24.6348 235.574 24.0839C235.574 23.5401 235.491 23.0518 235.327 22.6189C235.166 22.186 234.923 21.8444 234.597 21.594C234.275 21.3435 233.873 21.2183 233.39 21.2183C232.925 21.2183 232.531 21.3382 232.209 21.5779C231.891 21.8176 231.649 22.152 231.485 22.5813C231.32 23.0106 231.238 23.5115 231.238 24.0839ZM238.996 28.2051V19.9627H240.6V28.2051H238.996ZM239.806 18.6909C239.527 18.6909 239.287 18.5979 239.087 18.4118C238.89 18.2222 238.792 17.9968 238.792 17.7357C238.792 17.471 238.89 17.2456 239.087 17.0596C239.287 16.87 239.527 16.7752 239.806 16.7752C240.085 16.7752 240.323 16.87 240.52 17.0596C240.72 17.2456 240.82 17.471 240.82 17.7357C240.82 17.9968 240.72 18.2222 240.52 18.4118C240.323 18.5979 240.085 18.6909 239.806 18.6909ZM244.363 17.2152V28.2051H242.759V17.2152H244.363ZM246.522 28.2051V19.9627H248.126V28.2051H246.522ZM247.332 18.6909C247.053 18.6909 246.814 18.5979 246.613 18.4118C246.416 18.2222 246.318 17.9968 246.318 17.7357C246.318 17.471 246.416 17.2456 246.613 17.0596C246.814 16.87 247.053 16.7752 247.332 16.7752C247.611 16.7752 247.849 16.87 248.046 17.0596C248.246 17.2456 248.346 17.471 248.346 17.7357C248.346 17.9968 248.246 18.2222 248.046 18.4118C247.849 18.5979 247.611 18.6909 247.332 18.6909ZM254.133 19.9627V21.2505H249.63V19.9627H254.133ZM250.838 17.9879H252.442V25.7849C252.442 26.0962 252.489 26.3305 252.582 26.4879C252.675 26.6417 252.795 26.7473 252.941 26.8045C253.091 26.8582 253.254 26.885 253.43 26.885C253.558 26.885 253.671 26.8761 253.768 26.8582C253.864 26.8403 253.939 26.826 253.993 26.8152L254.283 28.1407C254.19 28.1765 254.057 28.2122 253.886 28.248C253.714 28.2874 253.499 28.3088 253.242 28.3124C252.82 28.3196 252.426 28.2444 252.061 28.087C251.696 27.9296 251.401 27.6863 251.176 27.3572C250.95 27.0281 250.838 26.6149 250.838 26.1176V17.9879ZM256.922 31.296C256.682 31.296 256.464 31.2763 256.267 31.237C256.07 31.2012 255.923 31.1618 255.827 31.1189L256.213 29.8042C256.507 29.8829 256.768 29.9169 256.997 29.9062C257.226 29.8954 257.428 29.8096 257.603 29.6486C257.782 29.4876 257.939 29.2246 258.075 28.8597L258.274 28.3124L255.258 19.9627H256.975L259.063 26.3591H259.149L261.236 19.9627H262.959L259.562 29.3051C259.404 29.7344 259.204 30.0975 258.961 30.3945C258.717 30.695 258.428 30.9204 258.091 31.0706C257.755 31.2209 257.365 31.296 256.922 31.296Z" fill="#101010"/>
<path d="M68.5 101.872H99.7288H150.099C171.427 101.872 188.716 119.165 188.716 140.493C188.716 161.684 188.716 180.699 188.716 207.23" stroke="#D5DDE0" stroke-width="1.25926"/>
<path d="M69 102.001C110.916 102.001 124.274 102.001 150.098 102.001C171.426 102.001 188.716 119.291 188.716 140.618V170.421" stroke="url(#paint1_linear_940_2211)" stroke-width="1.67901"/>
<path d="M211.216 243.478H174.987H124.617C103.289 243.478 85.9996 260.771 85.9996 282.099C85.9996 303.29 85.9996 322.305 85.9996 348.836" stroke="#D5DDE0" stroke-width="1.25926"/>
<path d="M210.716 243.607C168.313 243.607 152.496 243.607 124.63 243.607C103.302 243.607 85.9997 260.897 85.9997 282.224V312.027" stroke="url(#paint2_linear_940_2211)" stroke-width="1.67901"/>
<path d="M419.531 114.463H322.988L272.617 114.463C251.29 114.463 234 131.753 234 153.081V207.229" stroke="#D2DADD" stroke-width="1.25926"/>
<path d="M417.853 113.754C372.021 113.754 320.773 113.754 272.616 113.754C251.289 113.754 234.001 131.043 234.001 152.371V182.173" stroke="url(#paint3_linear_940_2211)" stroke-width="1.67901"/>
<path d="M215 242.187L248.685 242.187L299.055 242.187C320.383 242.188 337.672 259.477 337.672 280.805V334.953" stroke="#D2DADD" stroke-width="1.25926"/>
<path d="M214 241.478C256.305 241.478 271.599 241.478 299.044 241.478C320.372 241.478 337.672 258.767 337.672 280.095V309.897" stroke="url(#paint4_linear_940_2211)" stroke-width="1.67901"/>
<rect x="1" y="80.0449" width="147.049" height="43.1481" rx="21.5741" fill="white"/>
<rect x="1" y="80.0449" width="147.049" height="43.1481" rx="21.5741" stroke="#D2DADD" stroke-width="0.839506"/>
<circle cx="20.3089" cy="101.619" r="4.19753" fill="#2E90FA"/>
<path d="M33.7331 107.119V96.1292H38.2729C39.0957 96.1292 39.8058 96.2777 40.4033 96.5746C41.0043 96.868 41.4676 97.2901 41.7931 97.841C42.1186 98.3884 42.2814 99.0377 42.2814 99.789C42.2814 100.551 42.1151 101.198 41.7824 101.732C41.4497 102.261 40.9774 102.665 40.3657 102.944C39.754 103.22 39.0295 103.357 38.1924 103.357H35.3215V101.265H37.6987C38.0994 101.265 38.4339 101.213 38.7022 101.109C38.9741 101.002 39.1798 100.841 39.3193 100.626C39.4588 100.408 39.5286 100.129 39.5286 99.789C39.5286 99.4491 39.4588 99.1683 39.3193 98.9465C39.1798 98.7211 38.9741 98.553 38.7022 98.4421C38.4303 98.3276 38.0958 98.2703 37.6987 98.2703H36.3894V107.119H33.7331ZM39.9203 102.096L42.657 107.119H39.7593L37.0762 102.096H39.9203ZM52.8407 100.927V102.322H47.9682V100.927H52.8407ZM59.107 107.119V96.1292H63.0243C63.8757 96.1292 64.5823 96.2759 65.144 96.5693C65.7092 96.8626 66.1313 97.2687 66.4104 97.7874C66.6894 98.3025 66.8289 98.8982 66.8289 99.5743C66.8289 100.247 66.6876 100.839 66.405 101.351C66.126 101.859 65.7038 102.254 65.1386 102.536C64.5769 102.819 63.8704 102.96 63.0189 102.96H60.0515V101.533H62.8687C63.4053 101.533 63.8418 101.456 64.178 101.302C64.5179 101.148 64.7665 100.925 64.9239 100.631C65.0813 100.338 65.16 99.9857 65.16 99.5743C65.16 99.1593 65.0796 98.7998 64.9186 98.4957C64.7612 98.1916 64.5125 97.9591 64.1727 97.7981C63.8364 97.6336 63.3946 97.5513 62.8472 97.5513H60.7652V107.119H59.107ZM64.5322 102.161L67.2475 107.119H65.3586L62.697 102.161H64.5322ZM72.1669 107.285C71.3548 107.285 70.6554 107.112 70.0687 106.765C69.4856 106.414 69.0349 105.922 68.7165 105.289C68.4017 104.652 68.2443 103.907 68.2443 103.052C68.2443 102.207 68.4017 101.463 68.7165 100.819C69.0349 100.175 69.4785 99.6727 70.0473 99.3114C70.6197 98.9501 71.2887 98.7694 72.0542 98.7694C72.5193 98.7694 72.9701 98.8463 73.4065 99.0001C73.8429 99.154 74.2347 99.3954 74.5817 99.7246C74.9287 100.054 75.2024 100.481 75.4027 101.007C75.603 101.529 75.7032 102.164 75.7032 102.912V103.481H69.1511V102.279H74.1309C74.1309 101.857 74.0451 101.483 73.8734 101.157C73.7016 100.828 73.4602 100.569 73.1489 100.379C72.8413 100.19 72.4799 100.095 72.065 100.095C71.6142 100.095 71.2207 100.206 70.8844 100.428C70.5517 100.646 70.2941 100.932 70.1117 101.286C69.9328 101.637 69.8434 102.018 69.8434 102.429V103.368C69.8434 103.919 69.94 104.388 70.1331 104.774C70.3299 105.16 70.6036 105.456 70.9542 105.66C71.3048 105.86 71.7144 105.96 72.183 105.96C72.4871 105.96 72.7643 105.917 73.0148 105.831C73.2652 105.742 73.4816 105.609 73.6641 105.434C73.8465 105.259 73.986 105.042 74.0826 104.785L75.6013 105.059C75.4796 105.506 75.2614 105.897 74.9466 106.234C74.6354 106.566 74.2436 106.826 73.7714 107.012C73.3028 107.194 72.7679 107.285 72.1669 107.285ZM79.0879 96.1292V107.119H77.4834V96.1292H79.0879ZM81.2465 107.119V98.8767H82.8509V107.119H81.2465ZM82.0568 97.6049C81.7777 97.6049 81.538 97.5119 81.3377 97.3259C81.1409 97.1363 81.0425 96.9109 81.0425 96.6498C81.0425 96.385 81.1409 96.1596 81.3377 95.9736C81.538 95.784 81.7777 95.6892 82.0568 95.6892C82.3358 95.6892 82.5737 95.784 82.7705 95.9736C82.9708 96.1596 83.071 96.385 83.071 96.6498C83.071 96.9109 82.9708 97.1363 82.7705 97.3259C82.5737 97.5119 82.3358 97.6049 82.0568 97.6049ZM87.4082 107.302C86.8859 107.302 86.4136 107.205 85.9915 107.012C85.5694 106.815 85.2349 106.531 84.988 106.159C84.7448 105.787 84.6231 105.33 84.6231 104.79C84.6231 104.325 84.7126 103.942 84.8914 103.642C85.0703 103.341 85.3118 103.103 85.6159 102.928C85.9199 102.753 86.2598 102.621 86.6354 102.531C87.0111 102.442 87.3938 102.374 87.7838 102.327C88.2775 102.27 88.6781 102.223 88.9858 102.188C89.2935 102.148 89.5171 102.086 89.6566 102C89.7961 101.914 89.8659 101.774 89.8659 101.581V101.544C89.8659 101.075 89.7335 100.712 89.4688 100.454C89.2076 100.197 88.8177 100.068 88.2989 100.068C87.7587 100.068 87.333 100.188 87.0218 100.428C86.7141 100.664 86.5013 100.927 86.3832 101.216L84.8753 100.873C85.0542 100.372 85.3154 99.9678 85.6588 99.6602C86.0058 99.3489 86.4047 99.1236 86.8554 98.984C87.3062 98.8409 87.7802 98.7694 88.2775 98.7694C88.6066 98.7694 88.9554 98.8087 89.3239 98.8874C89.6959 98.9626 90.0429 99.1021 90.3649 99.306C90.6905 99.5099 90.957 99.8015 91.1645 100.181C91.372 100.556 91.4757 101.045 91.4757 101.646V107.119H89.9088V105.992H89.8444C89.7406 106.2 89.585 106.404 89.3775 106.604C89.17 106.804 88.9035 106.971 88.578 107.103C88.2524 107.235 87.8625 107.302 87.4082 107.302ZM87.757 106.014C88.2006 106.014 88.5798 105.926 88.8946 105.751C89.213 105.575 89.4545 105.347 89.619 105.064C89.7872 104.778 89.8712 104.472 89.8712 104.146V103.084C89.814 103.141 89.7031 103.195 89.5385 103.245C89.3775 103.291 89.1933 103.332 88.9858 103.368C88.7783 103.4 88.5762 103.431 88.3794 103.459C88.1827 103.484 88.0181 103.506 87.8857 103.524C87.5745 103.563 87.2901 103.629 87.0325 103.722C86.7785 103.815 86.5746 103.95 86.4208 104.125C86.2705 104.297 86.1954 104.525 86.1954 104.812C86.1954 105.209 86.3421 105.509 86.6354 105.713C86.9288 105.914 87.3026 106.014 87.757 106.014ZM93.7416 107.119V96.1292H95.3461V100.213H95.4426C95.5357 100.041 95.6698 99.8426 95.8451 99.6172C96.0204 99.3919 96.2637 99.1951 96.5749 99.027C96.8861 98.8553 97.2975 98.7694 97.8091 98.7694C98.4745 98.7694 99.0684 98.9375 99.5907 99.2738C100.113 99.6101 100.523 100.095 100.82 100.728C101.12 101.361 101.27 102.123 101.27 103.014C101.27 103.905 101.122 104.669 100.825 105.305C100.528 105.939 100.12 106.427 99.6014 106.77C99.0827 107.11 98.4906 107.28 97.8252 107.28C97.3244 107.28 96.9148 107.196 96.5964 107.028C96.2816 106.86 96.0347 106.663 95.8558 106.438C95.677 106.212 95.5392 106.012 95.4426 105.837H95.3085V107.119H93.7416ZM95.3139 102.998C95.3139 103.577 95.3979 104.085 95.5661 104.522C95.7342 104.958 95.9775 105.3 96.2959 105.547C96.6143 105.79 97.0042 105.912 97.4657 105.912C97.9451 105.912 98.3457 105.785 98.6677 105.531C98.9897 105.273 99.2329 104.924 99.3975 104.484C99.5656 104.044 99.6497 103.549 99.6497 102.998C99.6497 102.454 99.5674 101.966 99.4029 101.533C99.2419 101.1 98.9986 100.758 98.6731 100.508C98.3511 100.258 97.9486 100.132 97.4657 100.132C97.0006 100.132 96.6071 100.252 96.2851 100.492C95.9667 100.732 95.7253 101.066 95.5607 101.495C95.3961 101.925 95.3139 102.426 95.3139 102.998ZM103.072 107.119V98.8767H104.676V107.119H103.072ZM103.882 97.6049C103.603 97.6049 103.364 97.5119 103.163 97.3259C102.966 97.1363 102.868 96.9109 102.868 96.6498C102.868 96.385 102.966 96.1596 103.163 95.9736C103.364 95.784 103.603 95.6892 103.882 95.6892C104.161 95.6892 104.399 95.784 104.596 95.9736C104.796 96.1596 104.896 96.385 104.896 96.6498C104.896 96.9109 104.796 97.1363 104.596 97.3259C104.399 97.5119 104.161 97.6049 103.882 97.6049ZM108.439 96.1292V107.119H106.835V96.1292H108.439ZM110.598 107.119V98.8767H112.203V107.119H110.598ZM111.408 97.6049C111.129 97.6049 110.89 97.5119 110.689 97.3259C110.492 97.1363 110.394 96.9109 110.394 96.6498C110.394 96.385 110.492 96.1596 110.689 95.9736C110.89 95.784 111.129 95.6892 111.408 95.6892C111.687 95.6892 111.925 95.784 112.122 95.9736C112.322 96.1596 112.423 96.385 112.423 96.6498C112.423 96.9109 112.322 97.1363 112.122 97.3259C111.925 97.5119 111.687 97.6049 111.408 97.6049ZM118.209 98.8767V100.165H113.706V98.8767H118.209ZM114.914 96.902H116.518V104.699C116.518 105.01 116.565 105.245 116.658 105.402C116.751 105.556 116.871 105.661 117.017 105.719C117.168 105.772 117.33 105.799 117.506 105.799C117.634 105.799 117.747 105.79 117.844 105.772C117.94 105.754 118.015 105.74 118.069 105.729L118.359 107.055C118.266 107.091 118.133 107.126 117.962 107.162C117.79 107.201 117.575 107.223 117.318 107.226C116.896 107.234 116.502 107.158 116.137 107.001C115.772 106.844 115.477 106.6 115.252 106.271C115.026 105.942 114.914 105.529 114.914 105.032V96.902ZM120.998 110.21C120.758 110.21 120.54 110.19 120.343 110.151C120.146 110.115 120 110.076 119.903 110.033L120.289 108.718C120.583 108.797 120.844 108.831 121.073 108.82C121.302 108.809 121.504 108.724 121.679 108.563C121.858 108.402 122.015 108.139 122.151 107.774L122.35 107.226L119.334 98.8767H121.051L123.139 105.273H123.225L125.312 98.8767H127.035L123.638 108.219C123.48 108.648 123.28 109.012 123.037 109.309C122.794 109.609 122.504 109.834 122.167 109.985C121.831 110.135 121.441 110.21 120.998 110.21Z" fill="#101010"/>
<rect x="264" y="90.9585" width="152.049" height="43.1481" rx="21.5741" fill="white"/>
<rect x="264" y="90.9585" width="152.049" height="43.1481" rx="21.5741" stroke="#D2DADD" stroke-width="0.839506"/>
<circle cx="283.309" cy="112.532" r="4.19753" fill="#2E90FA"/>
<path d="M302.673 110.338C302.638 109.944 302.478 109.638 302.196 109.42C301.917 109.198 301.518 109.087 300.999 109.087C300.656 109.087 300.37 109.132 300.141 109.221C299.912 109.311 299.74 109.434 299.625 109.592C299.511 109.746 299.452 109.923 299.448 110.123C299.441 110.288 299.473 110.432 299.545 110.558C299.62 110.683 299.727 110.794 299.867 110.89C300.01 110.983 300.182 111.066 300.382 111.137C300.582 111.209 300.808 111.271 301.058 111.325L302.003 111.54C302.546 111.658 303.026 111.815 303.441 112.012C303.859 112.209 304.21 112.443 304.493 112.715C304.779 112.987 304.995 113.3 305.142 113.654C305.289 114.008 305.364 114.405 305.367 114.845C305.364 115.539 305.188 116.135 304.841 116.632C304.494 117.129 303.995 117.51 303.344 117.775C302.697 118.04 301.915 118.172 300.999 118.172C300.08 118.172 299.278 118.035 298.595 117.759C297.912 117.484 297.381 117.065 297.001 116.503C296.622 115.942 296.427 115.232 296.417 114.373H298.96C298.982 114.727 299.076 115.022 299.244 115.258C299.413 115.495 299.643 115.673 299.937 115.795C300.234 115.917 300.577 115.977 300.967 115.977C301.325 115.977 301.629 115.929 301.879 115.833C302.133 115.736 302.328 115.602 302.464 115.43C302.6 115.258 302.67 115.062 302.673 114.84C302.67 114.632 302.605 114.455 302.48 114.309C302.355 114.158 302.162 114.03 301.901 113.922C301.643 113.811 301.314 113.709 300.913 113.616L299.765 113.348C298.813 113.13 298.064 112.777 297.517 112.291C296.969 111.801 296.697 111.139 296.701 110.305C296.697 109.626 296.88 109.03 297.248 108.519C297.617 108.007 298.127 107.608 298.778 107.322C299.429 107.036 300.171 106.893 301.005 106.893C301.856 106.893 302.595 107.037 303.221 107.327C303.85 107.613 304.339 108.016 304.686 108.535C305.033 109.053 305.21 109.654 305.217 110.338H302.673ZM315.811 111.84V113.235H310.939V111.84H315.811ZM328.072 109.93C328.014 109.422 327.778 109.028 327.363 108.749C326.948 108.467 326.426 108.325 325.796 108.325C325.345 108.325 324.956 108.397 324.626 108.54C324.297 108.679 324.042 108.873 323.859 109.12C323.68 109.363 323.591 109.64 323.591 109.951C323.591 110.212 323.652 110.438 323.773 110.627C323.898 110.817 324.061 110.976 324.262 111.105C324.465 111.23 324.684 111.336 324.916 111.422C325.149 111.504 325.372 111.572 325.587 111.626L326.66 111.905C327.011 111.99 327.37 112.107 327.739 112.253C328.107 112.4 328.449 112.593 328.764 112.833C329.079 113.073 329.333 113.37 329.526 113.724C329.722 114.078 329.821 114.502 329.821 114.995C329.821 115.618 329.66 116.171 329.338 116.654C329.02 117.137 328.556 117.518 327.948 117.797C327.343 118.076 326.612 118.215 325.753 118.215C324.931 118.215 324.219 118.085 323.618 117.823C323.017 117.562 322.546 117.192 322.206 116.713C321.866 116.23 321.679 115.657 321.643 114.995H323.306C323.339 115.393 323.467 115.723 323.693 115.988C323.922 116.249 324.213 116.444 324.567 116.573C324.925 116.698 325.317 116.761 325.743 116.761C326.211 116.761 326.628 116.688 326.993 116.541C327.361 116.391 327.651 116.183 327.862 115.918C328.073 115.65 328.179 115.337 328.179 114.979C328.179 114.654 328.086 114.387 327.9 114.18C327.717 113.972 327.469 113.801 327.154 113.665C326.843 113.529 326.49 113.409 326.097 113.305L324.798 112.951C323.918 112.711 323.22 112.359 322.705 111.894C322.194 111.429 321.938 110.813 321.938 110.048C321.938 109.415 322.11 108.862 322.453 108.39C322.797 107.917 323.262 107.551 323.848 107.29C324.435 107.025 325.097 106.893 325.834 106.893C326.578 106.893 327.234 107.023 327.803 107.284C328.376 107.545 328.826 107.905 329.155 108.363C329.485 108.817 329.656 109.34 329.671 109.93H328.072ZM335.145 118.199C334.348 118.199 333.661 118.018 333.085 117.657C332.512 117.292 332.072 116.79 331.765 116.149C331.457 115.509 331.303 114.775 331.303 113.949C331.303 113.112 331.461 112.373 331.775 111.733C332.09 111.089 332.534 110.586 333.106 110.225C333.679 109.864 334.353 109.683 335.129 109.683C335.755 109.683 336.313 109.799 336.804 110.032C337.294 110.261 337.689 110.583 337.99 110.998C338.294 111.413 338.474 111.897 338.531 112.452H336.97C336.884 112.066 336.687 111.733 336.38 111.454C336.076 111.175 335.668 111.035 335.156 111.035C334.709 111.035 334.317 111.153 333.981 111.389C333.648 111.622 333.389 111.955 333.203 112.388C333.017 112.817 332.924 113.325 332.924 113.912C332.924 114.513 333.015 115.031 333.198 115.468C333.38 115.904 333.638 116.242 333.97 116.482C334.307 116.722 334.702 116.841 335.156 116.841C335.46 116.841 335.736 116.786 335.983 116.675C336.233 116.561 336.442 116.398 336.61 116.187C336.782 115.976 336.902 115.722 336.97 115.425H338.531C338.474 115.958 338.301 116.434 338.011 116.852C337.721 117.271 337.333 117.6 336.847 117.84C336.364 118.079 335.797 118.199 335.145 118.199ZM342.646 118.215C342.124 118.215 341.651 118.119 341.229 117.925C340.807 117.729 340.473 117.444 340.226 117.072C339.983 116.7 339.861 116.244 339.861 115.704C339.861 115.239 339.95 114.856 340.129 114.555C340.308 114.255 340.55 114.017 340.854 113.842C341.158 113.666 341.498 113.534 341.873 113.445C342.249 113.355 342.632 113.287 343.022 113.241C343.515 113.183 343.916 113.137 344.224 113.101C344.531 113.062 344.755 112.999 344.894 112.913C345.034 112.828 345.104 112.688 345.104 112.495V112.457C345.104 111.989 344.971 111.626 344.707 111.368C344.445 111.11 344.056 110.982 343.537 110.982C342.997 110.982 342.571 111.101 342.26 111.341C341.952 111.577 341.739 111.84 341.621 112.13L340.113 111.787C340.292 111.286 340.553 110.881 340.897 110.574C341.244 110.263 341.643 110.037 342.093 109.898C342.544 109.755 343.018 109.683 343.515 109.683C343.844 109.683 344.193 109.722 344.562 109.801C344.934 109.876 345.281 110.016 345.603 110.22C345.928 110.423 346.195 110.715 346.402 111.094C346.61 111.47 346.714 111.958 346.714 112.559V118.033H345.147V116.906H345.082C344.978 117.113 344.823 117.317 344.615 117.518C344.408 117.718 344.141 117.884 343.816 118.017C343.49 118.149 343.1 118.215 342.646 118.215ZM342.995 116.927C343.438 116.927 343.818 116.84 344.132 116.664C344.451 116.489 344.692 116.26 344.857 115.977C345.025 115.691 345.109 115.385 345.109 115.06V113.997C345.052 114.055 344.941 114.108 344.776 114.158C344.615 114.205 344.431 114.246 344.224 114.282C344.016 114.314 343.814 114.344 343.617 114.373C343.421 114.398 343.256 114.419 343.124 114.437C342.812 114.477 342.528 114.543 342.27 114.636C342.016 114.729 341.812 114.863 341.659 115.038C341.508 115.21 341.433 115.439 341.433 115.725C341.433 116.122 341.58 116.423 341.873 116.627C342.167 116.827 342.54 116.927 342.995 116.927ZM350.455 107.043V118.033H348.851V107.043H350.455ZM355.012 118.215C354.49 118.215 354.018 118.119 353.596 117.925C353.174 117.729 352.839 117.444 352.592 117.072C352.349 116.7 352.227 116.244 352.227 115.704C352.227 115.239 352.317 114.856 352.496 114.555C352.674 114.255 352.916 114.017 353.22 113.842C353.524 113.666 353.864 113.534 354.24 113.445C354.615 113.355 354.998 113.287 355.388 113.241C355.882 113.183 356.282 113.137 356.59 113.101C356.898 113.062 357.121 112.999 357.261 112.913C357.4 112.828 357.47 112.688 357.47 112.495V112.457C357.47 111.989 357.338 111.626 357.073 111.368C356.812 111.11 356.422 110.982 355.903 110.982C355.363 110.982 354.937 111.101 354.626 111.341C354.318 111.577 354.105 111.84 353.987 112.13L352.479 111.787C352.658 111.286 352.92 110.881 353.263 110.574C353.61 110.263 354.009 110.037 354.46 109.898C354.91 109.755 355.384 109.683 355.882 109.683C356.211 109.683 356.56 109.722 356.928 109.801C357.3 109.876 357.647 110.016 357.969 110.22C358.295 110.423 358.561 110.715 358.769 111.094C358.976 111.47 359.08 111.958 359.08 112.559V118.033H357.513V116.906H357.449C357.345 117.113 357.189 117.317 356.982 117.518C356.774 117.718 356.508 117.884 356.182 118.017C355.857 118.149 355.467 118.215 355.012 118.215ZM355.361 116.927C355.805 116.927 356.184 116.84 356.499 116.664C356.817 116.489 357.059 116.26 357.223 115.977C357.391 115.691 357.475 115.385 357.475 115.06V113.997C357.418 114.055 357.307 114.108 357.143 114.158C356.982 114.205 356.797 114.246 356.59 114.282C356.382 114.314 356.18 114.344 355.984 114.373C355.787 114.398 355.622 114.419 355.49 114.437C355.179 114.477 354.894 114.543 354.637 114.636C354.383 114.729 354.179 114.863 354.025 115.038C353.875 115.21 353.8 115.439 353.8 115.725C353.8 116.122 353.946 116.423 354.24 116.627C354.533 116.827 354.907 116.927 355.361 116.927ZM361.346 118.033V107.043H362.95V111.126H363.047C363.14 110.955 363.274 110.756 363.449 110.531C363.625 110.305 363.868 110.109 364.179 109.941C364.49 109.769 364.902 109.683 365.413 109.683C366.079 109.683 366.673 109.851 367.195 110.187C367.717 110.524 368.127 111.008 368.424 111.642C368.724 112.275 368.874 113.037 368.874 113.928C368.874 114.818 368.726 115.582 368.429 116.219C368.132 116.852 367.724 117.34 367.206 117.684C366.687 118.024 366.095 118.194 365.429 118.194C364.929 118.194 364.519 118.11 364.201 117.941C363.886 117.773 363.639 117.577 363.46 117.351C363.281 117.126 363.143 116.925 363.047 116.75H362.913V118.033H361.346ZM362.918 113.912C362.918 114.491 363.002 114.999 363.17 115.435C363.338 115.872 363.582 116.214 363.9 116.46C364.218 116.704 364.608 116.825 365.07 116.825C365.549 116.825 365.95 116.698 366.272 116.444C366.594 116.187 366.837 115.838 367.002 115.398C367.17 114.958 367.254 114.462 367.254 113.912C367.254 113.368 367.172 112.879 367.007 112.447C366.846 112.014 366.603 111.672 366.277 111.422C365.955 111.171 365.553 111.046 365.07 111.046C364.605 111.046 364.211 111.166 363.889 111.406C363.571 111.645 363.329 111.98 363.165 112.409C363 112.838 362.918 113.339 362.918 113.912ZM370.676 118.033V109.79H372.281V118.033H370.676ZM371.486 108.519C371.207 108.519 370.968 108.425 370.767 108.239C370.571 108.05 370.472 107.824 370.472 107.563C370.472 107.299 370.571 107.073 370.767 106.887C370.968 106.698 371.207 106.603 371.486 106.603C371.765 106.603 372.003 106.698 372.2 106.887C372.4 107.073 372.501 107.299 372.501 107.563C372.501 107.824 372.4 108.05 372.2 108.239C372.003 108.425 371.765 108.519 371.486 108.519ZM376.044 107.043V118.033H374.439V107.043H376.044ZM378.202 118.033V109.79H379.807V118.033H378.202ZM379.012 108.519C378.733 108.519 378.494 108.425 378.293 108.239C378.097 108.05 377.998 107.824 377.998 107.563C377.998 107.299 378.097 107.073 378.293 106.887C378.494 106.698 378.733 106.603 379.012 106.603C379.292 106.603 379.529 106.698 379.726 106.887C379.927 107.073 380.027 107.299 380.027 107.563C380.027 107.824 379.927 108.05 379.726 108.239C379.529 108.425 379.292 108.519 379.012 108.519ZM385.813 109.79V111.078H381.311V109.79H385.813ZM382.518 107.816H384.122V115.613C384.122 115.924 384.169 116.158 384.262 116.316C384.355 116.469 384.475 116.575 384.621 116.632C384.772 116.686 384.934 116.713 385.11 116.713C385.239 116.713 385.351 116.704 385.448 116.686C385.544 116.668 385.62 116.654 385.673 116.643L385.963 117.968C385.87 118.004 385.738 118.04 385.566 118.076C385.394 118.115 385.18 118.136 384.922 118.14C384.5 118.147 384.106 118.072 383.741 117.915C383.377 117.757 383.081 117.514 382.856 117.185C382.631 116.856 382.518 116.443 382.518 115.945V107.816ZM388.602 121.124C388.362 121.124 388.144 121.104 387.947 121.065C387.75 121.029 387.604 120.989 387.507 120.947L387.893 119.632C388.187 119.711 388.448 119.745 388.677 119.734C388.906 119.723 389.108 119.637 389.283 119.476C389.462 119.315 389.62 119.052 389.756 118.687L389.954 118.14L386.938 109.79H388.655L390.743 116.187H390.829L392.916 109.79H394.639L391.242 119.133C391.085 119.562 390.884 119.925 390.641 120.222C390.398 120.523 390.108 120.748 389.772 120.898C389.435 121.048 389.045 121.124 388.602 121.124Z" fill="#101010"/>
<g filter="url(#filter0_d_940_2211)">
<rect x="120.507" y="206.939" width="184.691" height="68.8395" rx="34.4198" fill="white"/>
<rect x="120.507" y="206.939" width="184.691" height="68.8395" rx="34.4198" stroke="#D2DADD"/>
</g>
<path d="M160.059 235.101V232.505H173.699V235.101H168.415V249.6H165.343V235.101H160.059ZM177.958 249.784C177.451 249.784 177.017 249.606 176.655 249.25C176.294 248.893 176.116 248.459 176.121 247.947C176.116 247.446 176.294 247.018 176.655 246.662C177.017 246.306 177.451 246.128 177.958 246.128C178.447 246.128 178.873 246.306 179.235 246.662C179.602 247.018 179.788 247.446 179.794 247.947C179.788 248.287 179.699 248.596 179.527 248.874C179.36 249.152 179.137 249.375 178.859 249.542C178.586 249.703 178.286 249.784 177.958 249.784ZM183.753 249.6V232.505H190.163C191.477 232.505 192.579 232.733 193.469 233.189C194.365 233.646 195.041 234.285 195.497 235.109C195.959 235.927 196.19 236.881 196.19 237.972C196.19 239.069 195.956 240.02 195.489 240.827C195.027 241.628 194.345 242.249 193.444 242.688C192.542 243.123 191.435 243.34 190.122 243.34H185.556V240.769H189.704C190.472 240.769 191.101 240.663 191.591 240.451C192.08 240.234 192.442 239.92 192.676 239.508C192.915 239.091 193.035 238.579 193.035 237.972C193.035 237.366 192.915 236.848 192.676 236.42C192.437 235.986 192.072 235.657 191.582 235.435C191.093 235.206 190.461 235.092 189.688 235.092H186.849V249.6H183.753ZM192.584 241.854L196.816 249.6H193.36L189.203 241.854H192.584ZM201.474 249.784C200.967 249.784 200.533 249.606 200.172 249.25C199.81 248.893 199.632 248.459 199.637 247.947C199.632 247.446 199.81 247.018 200.172 246.662C200.533 246.306 200.967 246.128 201.474 246.128C201.964 246.128 202.389 246.306 202.751 246.662C203.118 247.018 203.305 247.446 203.31 247.947C203.305 248.287 203.216 248.596 203.043 248.874C202.876 249.152 202.654 249.375 202.375 249.542C202.103 249.703 201.802 249.784 201.474 249.784ZM218.045 232.505H221.142V243.673C221.142 244.898 220.853 245.975 220.274 246.904C219.701 247.833 218.894 248.559 217.853 249.083C216.813 249.6 215.597 249.859 214.206 249.859C212.809 249.859 211.59 249.6 210.549 249.083C209.509 248.559 208.702 247.833 208.129 246.904C207.555 245.975 207.269 244.898 207.269 243.673V232.505H210.366V243.415C210.366 244.127 210.522 244.761 210.833 245.318C211.15 245.874 211.596 246.311 212.169 246.628C212.742 246.94 213.421 247.096 214.206 247.096C214.99 247.096 215.669 246.94 216.242 246.628C216.821 246.311 217.266 245.874 217.578 245.318C217.889 244.761 218.045 244.127 218.045 243.415V232.505ZM226.138 249.784C225.631 249.784 225.197 249.606 224.836 249.25C224.474 248.893 224.296 248.459 224.301 247.947C224.296 247.446 224.474 247.018 224.836 246.662C225.197 246.306 225.631 246.128 226.138 246.128C226.628 246.128 227.053 246.306 227.415 246.662C227.782 247.018 227.969 247.446 227.974 247.947C227.969 248.287 227.88 248.596 227.707 248.874C227.54 249.152 227.318 249.375 227.039 249.542C226.767 249.703 226.466 249.784 226.138 249.784ZM241.224 237.204C241.146 236.475 240.817 235.908 240.239 235.501C239.665 235.095 238.92 234.892 238.001 234.892C237.356 234.892 236.802 234.989 236.34 235.184C235.878 235.379 235.525 235.643 235.28 235.977C235.035 236.311 234.91 236.692 234.905 237.121C234.905 237.477 234.985 237.786 235.147 238.047C235.314 238.309 235.539 238.531 235.823 238.715C236.107 238.893 236.421 239.043 236.766 239.166C237.111 239.288 237.459 239.391 237.809 239.475L239.412 239.875C240.058 240.026 240.678 240.229 241.274 240.485C241.875 240.741 242.412 241.064 242.885 241.453C243.363 241.843 243.742 242.313 244.02 242.864C244.298 243.415 244.437 244.06 244.437 244.8C244.437 245.802 244.181 246.684 243.669 247.446C243.157 248.203 242.417 248.796 241.449 249.224C240.486 249.647 239.32 249.859 237.951 249.859C236.621 249.859 235.467 249.653 234.487 249.241C233.513 248.829 232.751 248.228 232.2 247.438C231.655 246.648 231.36 245.685 231.315 244.55H234.362C234.406 245.145 234.59 245.641 234.913 246.036C235.236 246.431 235.656 246.726 236.173 246.921C236.696 247.115 237.281 247.213 237.926 247.213C238.6 247.213 239.19 247.113 239.696 246.912C240.208 246.706 240.609 246.423 240.898 246.061C241.187 245.694 241.335 245.265 241.34 244.775C241.335 244.33 241.204 243.963 240.948 243.673C240.692 243.379 240.333 243.134 239.871 242.939C239.415 242.739 238.881 242.56 238.269 242.405L236.324 241.904C234.916 241.542 233.803 240.994 232.985 240.259C232.172 239.519 231.766 238.537 231.766 237.313C231.766 236.306 232.039 235.423 232.584 234.667C233.135 233.91 233.883 233.323 234.829 232.905C235.775 232.482 236.847 232.271 238.043 232.271C239.256 232.271 240.319 232.482 241.232 232.905C242.15 233.323 242.871 233.904 243.394 234.65C243.917 235.39 244.187 236.242 244.204 237.204H241.224ZM249.631 249.784C249.125 249.784 248.691 249.606 248.329 249.25C247.967 248.893 247.789 248.459 247.795 247.947C247.789 247.446 247.967 247.018 248.329 246.662C248.691 246.306 249.125 246.128 249.631 246.128C250.121 246.128 250.547 246.306 250.908 246.662C251.276 247.018 251.462 247.446 251.468 247.947C251.462 248.287 251.373 248.596 251.201 248.874C251.034 249.152 250.811 249.375 250.533 249.542C250.26 249.703 249.96 249.784 249.631 249.784ZM253.872 235.101V232.505H267.511V235.101H262.227V249.6H259.155V235.101H253.872Z" fill="#222222"/>
<rect x="10" y="346.478" width="177.049" height="43.1481" rx="21.5741" fill="white"/>
<rect x="10" y="346.478" width="177.049" height="43.1481" rx="21.5741" stroke="#D2DADD" stroke-width="0.839506"/>
<circle cx="29.3089" cy="368.052" r="4.19753" fill="#2E90FA"/>
<path d="M42.3736 364.72V362.562H51.6624V364.72H48.33V373.552H45.7113V364.72H42.3736ZM62.062 367.36V368.755H57.1896V367.36H62.062ZM67.7864 363.99V362.562H76.2918V363.99H72.8628V373.552H71.21V363.99H67.7864ZM77.1866 373.552V365.31H78.7374V366.619H78.8232C78.9735 366.176 79.2382 365.827 79.6174 365.573C80.0002 365.315 80.4331 365.186 80.916 365.186C81.0162 365.186 81.1343 365.19 81.2702 365.197C81.4097 365.204 81.5188 365.213 81.5975 365.224V366.759C81.5332 366.741 81.4187 366.721 81.2541 366.7C81.0896 366.675 80.925 366.662 80.7604 366.662C80.3812 366.662 80.0431 366.743 79.7462 366.904C79.4529 367.061 79.2203 367.281 79.0486 367.564C78.8769 367.843 78.791 368.161 78.791 368.519V373.552H77.1866ZM85.3109 373.735C84.7886 373.735 84.3164 373.638 83.8943 373.445C83.4721 373.248 83.1376 372.964 82.8908 372.592C82.6475 372.22 82.5259 371.764 82.5259 371.223C82.5259 370.758 82.6153 370.375 82.7942 370.075C82.9731 369.774 83.2146 369.537 83.5186 369.361C83.8227 369.186 84.1626 369.054 84.5382 368.964C84.9138 368.875 85.2966 368.807 85.6866 368.76C86.1803 368.703 86.5809 368.657 86.8886 368.621C87.1962 368.581 87.4198 368.519 87.5594 368.433C87.6989 368.347 87.7686 368.208 87.7686 368.014V367.977C87.7686 367.508 87.6363 367.145 87.3715 366.887C87.1104 366.63 86.7204 366.501 86.2017 366.501C85.6615 366.501 85.2358 366.621 84.9246 366.861C84.6169 367.097 84.4041 367.36 84.286 367.649L82.7781 367.306C82.957 366.805 83.2181 366.401 83.5616 366.093C83.9086 365.782 84.3075 365.557 84.7582 365.417C85.209 365.274 85.683 365.202 86.1803 365.202C86.5094 365.202 86.8582 365.242 87.2267 365.321C87.5987 365.396 87.9457 365.535 88.2677 365.739C88.5932 365.943 88.8598 366.235 89.0672 366.614C89.2747 366.989 89.3785 367.478 89.3785 368.079V373.552H87.8116V372.425H87.7472C87.6434 372.633 87.4878 372.837 87.2803 373.037C87.0728 373.237 86.8063 373.404 86.4808 373.536C86.1552 373.669 85.7653 373.735 85.3109 373.735ZM85.6597 372.447C86.1033 372.447 86.4825 372.359 86.7974 372.184C87.1158 372.009 87.3572 371.78 87.5218 371.497C87.6899 371.211 87.774 370.905 87.774 370.579V369.517C87.7168 369.574 87.6059 369.628 87.4413 369.678C87.2803 369.724 87.0961 369.766 86.8886 369.801C86.6811 369.833 86.479 369.864 86.2822 369.893C86.0854 369.918 85.9209 369.939 85.7885 369.957C85.4773 369.996 85.1929 370.062 84.9353 370.155C84.6813 370.248 84.4774 370.383 84.3236 370.558C84.1733 370.73 84.0982 370.959 84.0982 371.245C84.0982 371.642 84.2449 371.942 84.5382 372.146C84.8316 372.347 85.2054 372.447 85.6597 372.447ZM93.12 368.658V373.552H91.5156V365.31H93.0556V366.651H93.1576C93.3472 366.215 93.6441 365.864 94.0484 365.6C94.4562 365.335 94.9696 365.202 95.5885 365.202C96.1501 365.202 96.642 365.321 97.0642 365.557C97.4863 365.789 97.8136 366.136 98.0462 366.598C98.2787 367.059 98.395 367.63 98.395 368.31V373.552H96.7905V368.503C96.7905 367.905 96.6349 367.438 96.3236 367.102C96.0124 366.762 95.5849 366.592 95.0411 366.592C94.6691 366.592 94.3382 366.673 94.0484 366.834C93.7622 366.995 93.535 367.231 93.3669 367.542C93.2023 367.85 93.12 368.222 93.12 368.658ZM106.723 367.322L105.269 367.58C105.208 367.394 105.112 367.217 104.979 367.048C104.85 366.88 104.675 366.743 104.453 366.635C104.232 366.528 103.954 366.474 103.622 366.474C103.167 366.474 102.788 366.576 102.484 366.78C102.18 366.98 102.028 367.24 102.028 367.558C102.028 367.834 102.13 368.056 102.334 368.224C102.538 368.392 102.867 368.53 103.321 368.637L104.63 368.937C105.389 369.113 105.954 369.383 106.326 369.748C106.698 370.113 106.884 370.587 106.884 371.17C106.884 371.663 106.741 372.103 106.455 372.49C106.172 372.873 105.777 373.173 105.269 373.391C104.765 373.609 104.18 373.719 103.514 373.719C102.591 373.719 101.838 373.522 101.255 373.128C100.672 372.731 100.314 372.168 100.182 371.438L101.733 371.202C101.829 371.606 102.028 371.912 102.328 372.119C102.629 372.323 103.021 372.425 103.504 372.425C104.029 372.425 104.45 372.316 104.765 372.098C105.079 371.876 105.237 371.606 105.237 371.288C105.237 371.03 105.14 370.814 104.947 370.638C104.757 370.463 104.466 370.331 104.072 370.241L102.677 369.935C101.908 369.76 101.339 369.481 100.971 369.098C100.606 368.716 100.423 368.231 100.423 367.644C100.423 367.158 100.559 366.732 100.831 366.367C101.103 366.002 101.479 365.718 101.958 365.514C102.437 365.306 102.987 365.202 103.606 365.202C104.496 365.202 105.197 365.396 105.709 365.782C106.221 366.165 106.559 366.678 106.723 367.322ZM108.648 376.643V365.31H110.215V366.646H110.349C110.442 366.474 110.577 366.276 110.752 366.05C110.927 365.825 111.17 365.628 111.482 365.46C111.793 365.288 112.204 365.202 112.716 365.202C113.381 365.202 113.975 365.371 114.497 365.707C115.02 366.043 115.429 366.528 115.726 367.161C116.027 367.794 116.177 368.556 116.177 369.447C116.177 370.338 116.029 371.102 115.732 371.738C115.435 372.372 115.027 372.86 114.508 373.203C113.989 373.543 113.397 373.713 112.732 373.713C112.231 373.713 111.822 373.629 111.503 373.461C111.188 373.293 110.942 373.096 110.763 372.871C110.584 372.645 110.446 372.445 110.349 372.27H110.253V376.643H108.648ZM110.221 369.431C110.221 370.011 110.305 370.519 110.473 370.955C110.641 371.391 110.884 371.733 111.203 371.98C111.521 372.223 111.911 372.345 112.372 372.345C112.852 372.345 113.253 372.218 113.575 371.964C113.896 371.706 114.14 371.357 114.304 370.917C114.472 370.477 114.557 369.982 114.557 369.431C114.557 368.887 114.474 368.399 114.31 367.966C114.149 367.533 113.905 367.192 113.58 366.941C113.258 366.691 112.855 366.566 112.372 366.566C111.907 366.566 111.514 366.685 111.192 366.925C110.874 367.165 110.632 367.499 110.467 367.929C110.303 368.358 110.221 368.859 110.221 369.431ZM120.373 373.735C119.851 373.735 119.379 373.638 118.957 373.445C118.535 373.248 118.2 372.964 117.953 372.592C117.71 372.22 117.588 371.764 117.588 371.223C117.588 370.758 117.678 370.375 117.857 370.075C118.036 369.774 118.277 369.537 118.581 369.361C118.885 369.186 119.225 369.054 119.601 368.964C119.976 368.875 120.359 368.807 120.749 368.76C121.243 368.703 121.643 368.657 121.951 368.621C122.259 368.581 122.482 368.519 122.622 368.433C122.761 368.347 122.831 368.208 122.831 368.014V367.977C122.831 367.508 122.699 367.145 122.434 366.887C122.173 366.63 121.783 366.501 121.264 366.501C120.724 366.501 120.298 366.621 119.987 366.861C119.679 367.097 119.467 367.36 119.348 367.649L117.841 367.306C118.019 366.805 118.281 366.401 118.624 366.093C118.971 365.782 119.37 365.557 119.821 365.417C120.271 365.274 120.745 365.202 121.243 365.202C121.572 365.202 121.921 365.242 122.289 365.321C122.661 365.396 123.008 365.535 123.33 365.739C123.656 365.943 123.922 366.235 124.13 366.614C124.337 366.989 124.441 367.478 124.441 368.079V373.552H122.874V372.425H122.81C122.706 372.633 122.55 372.837 122.343 373.037C122.135 373.237 121.869 373.404 121.543 373.536C121.218 373.669 120.828 373.735 120.373 373.735ZM120.722 372.447C121.166 372.447 121.545 372.359 121.86 372.184C122.178 372.009 122.42 371.78 122.584 371.497C122.752 371.211 122.837 370.905 122.837 370.579V369.517C122.779 369.574 122.668 369.628 122.504 369.678C122.343 369.724 122.159 369.766 121.951 369.801C121.744 369.833 121.541 369.864 121.345 369.893C121.148 369.918 120.983 369.939 120.851 369.957C120.54 369.996 120.255 370.062 119.998 370.155C119.744 370.248 119.54 370.383 119.386 370.558C119.236 370.73 119.161 370.959 119.161 371.245C119.161 371.642 119.307 371.942 119.601 372.146C119.894 372.347 120.268 372.447 120.722 372.447ZM126.578 373.552V365.31H128.129V366.619H128.215C128.365 366.176 128.63 365.827 129.009 365.573C129.392 365.315 129.825 365.186 130.308 365.186C130.408 365.186 130.526 365.19 130.662 365.197C130.801 365.204 130.91 365.213 130.989 365.224V366.759C130.925 366.741 130.81 366.721 130.646 366.7C130.481 366.675 130.316 366.662 130.152 366.662C129.773 366.662 129.435 366.743 129.138 366.904C128.844 367.061 128.612 367.281 128.44 367.564C128.268 367.843 128.183 368.161 128.183 368.519V373.552H126.578ZM135.635 373.719C134.823 373.719 134.123 373.545 133.537 373.198C132.954 372.847 132.503 372.356 132.184 371.722C131.87 371.086 131.712 370.34 131.712 369.485C131.712 368.64 131.87 367.896 132.184 367.252C132.503 366.608 132.946 366.106 133.515 365.744C134.088 365.383 134.757 365.202 135.522 365.202C135.987 365.202 136.438 365.279 136.874 365.433C137.311 365.587 137.703 365.829 138.05 366.158C138.397 366.487 138.67 366.914 138.871 367.44C139.071 367.962 139.171 368.597 139.171 369.345V369.914H132.619V368.712H137.599C137.599 368.29 137.513 367.916 137.341 367.59C137.17 367.261 136.928 367.002 136.617 366.812C136.309 366.623 135.948 366.528 135.533 366.528C135.082 366.528 134.689 366.639 134.352 366.861C134.02 367.079 133.762 367.365 133.58 367.719C133.401 368.07 133.311 368.451 133.311 368.862V369.801C133.311 370.352 133.408 370.821 133.601 371.207C133.798 371.594 134.071 371.889 134.422 372.093C134.773 372.293 135.182 372.393 135.651 372.393C135.955 372.393 136.232 372.35 136.483 372.264C136.733 372.175 136.95 372.043 137.132 371.867C137.314 371.692 137.454 371.476 137.551 371.218L139.069 371.492C138.948 371.939 138.729 372.331 138.414 372.667C138.103 373 137.712 373.259 137.239 373.445C136.771 373.627 136.236 373.719 135.635 373.719ZM142.556 368.658V373.552H140.951V365.31H142.491V366.651H142.593C142.783 366.215 143.08 365.864 143.484 365.6C143.892 365.335 144.405 365.202 145.024 365.202C145.586 365.202 146.078 365.321 146.5 365.557C146.922 365.789 147.249 366.136 147.482 366.598C147.714 367.059 147.831 367.63 147.831 368.31V373.552H146.226V368.503C146.226 367.905 146.071 367.438 145.759 367.102C145.448 366.762 145.021 366.592 144.477 366.592C144.105 366.592 143.774 366.673 143.484 366.834C143.198 366.995 142.971 367.231 142.803 367.542C142.638 367.85 142.556 368.222 142.556 368.658ZM153.454 373.719C152.657 373.719 151.97 373.538 151.394 373.177C150.821 372.812 150.381 372.309 150.074 371.669C149.766 371.028 149.612 370.295 149.612 369.469C149.612 368.631 149.77 367.893 150.085 367.252C150.399 366.608 150.843 366.106 151.415 365.744C151.988 365.383 152.662 365.202 153.438 365.202C154.064 365.202 154.623 365.319 155.113 365.551C155.603 365.78 155.998 366.102 156.299 366.517C156.603 366.932 156.783 367.417 156.841 367.971H155.279C155.193 367.585 154.996 367.252 154.689 366.973C154.385 366.694 153.977 366.555 153.465 366.555C153.018 366.555 152.626 366.673 152.29 366.909C151.957 367.141 151.698 367.474 151.512 367.907C151.326 368.336 151.233 368.844 151.233 369.431C151.233 370.032 151.324 370.551 151.507 370.987C151.689 371.424 151.947 371.762 152.279 372.001C152.616 372.241 153.011 372.361 153.465 372.361C153.769 372.361 154.045 372.306 154.292 372.195C154.542 372.08 154.751 371.917 154.919 371.706C155.091 371.495 155.211 371.241 155.279 370.944H156.841C156.783 371.477 156.61 371.953 156.32 372.372C156.03 372.79 155.642 373.119 155.156 373.359C154.673 373.599 154.106 373.719 153.454 373.719ZM159.571 376.643C159.331 376.643 159.113 376.623 158.916 376.584C158.719 376.548 158.572 376.509 158.476 376.466L158.862 375.151C159.156 375.23 159.417 375.264 159.646 375.253C159.875 375.243 160.077 375.157 160.252 374.996C160.431 374.835 160.588 374.572 160.724 374.207L160.923 373.66L157.907 365.31H159.624L161.712 371.706H161.798L163.885 365.31H165.607L162.211 374.652C162.053 375.082 161.853 375.445 161.61 375.742C161.366 376.042 161.077 376.268 160.74 376.418C160.404 376.568 160.014 376.643 159.571 376.643Z" fill="#101010"/>
<rect x="249" y="329.478" width="177.049" height="43.1481" rx="21.5741" fill="white"/>
<rect x="249" y="329.478" width="177.049" height="43.1481" rx="21.5741" stroke="#D2DADD" stroke-width="0.839506"/>
<circle cx="268.309" cy="351.052" r="4.19753" fill="#2E90FA"/>
<path d="M281.374 347.72V345.562H290.662V347.72H287.33V356.552H284.711V347.72H281.374ZM301.062 350.36V351.755H296.19V350.36H301.062ZM306.786 346.99V345.562H315.292V346.99H311.863V356.552H310.21V346.99H306.786ZM319.319 356.719C318.546 356.719 317.872 356.542 317.296 356.187C316.72 355.833 316.273 355.338 315.954 354.701C315.636 354.064 315.477 353.32 315.477 352.469C315.477 351.614 315.636 350.866 315.954 350.226C316.273 349.585 316.72 349.088 317.296 348.734C317.872 348.38 318.546 348.202 319.319 348.202C320.092 348.202 320.766 348.38 321.342 348.734C321.918 349.088 322.365 349.585 322.684 350.226C323.002 350.866 323.161 351.614 323.161 352.469C323.161 353.32 323.002 354.064 322.684 354.701C322.365 355.338 321.918 355.833 321.342 356.187C320.766 356.542 320.092 356.719 319.319 356.719ZM319.324 355.372C319.825 355.372 320.24 355.239 320.569 354.975C320.899 354.71 321.142 354.357 321.299 353.917C321.46 353.477 321.541 352.993 321.541 352.463C321.541 351.937 321.46 351.454 321.299 351.014C321.142 350.571 320.899 350.215 320.569 349.947C320.24 349.678 319.825 349.544 319.324 349.544C318.82 349.544 318.401 349.678 318.069 349.947C317.74 350.215 317.495 350.571 317.334 351.014C317.176 351.454 317.097 351.937 317.097 352.463C317.097 352.993 317.176 353.477 317.334 353.917C317.495 354.357 317.74 354.71 318.069 354.975C318.401 355.239 318.82 355.372 319.324 355.372ZM328.408 359.815C327.753 359.815 327.19 359.729 326.718 359.557C326.249 359.386 325.866 359.158 325.569 358.876C325.272 358.593 325.051 358.284 324.904 357.947L326.283 357.379C326.38 357.536 326.508 357.702 326.669 357.878C326.834 358.057 327.056 358.209 327.335 358.334C327.617 358.459 327.98 358.522 328.424 358.522C329.032 358.522 329.535 358.373 329.932 358.076C330.329 357.783 330.528 357.314 330.528 356.67V355.05H330.426C330.329 355.225 330.19 355.42 330.007 355.635C329.828 355.849 329.581 356.035 329.267 356.193C328.952 356.35 328.542 356.429 328.038 356.429C327.387 356.429 326.8 356.277 326.278 355.973C325.759 355.665 325.347 355.212 325.043 354.615C324.743 354.014 324.593 353.275 324.593 352.399C324.593 351.522 324.741 350.771 325.038 350.145C325.339 349.519 325.75 349.04 326.272 348.707C326.795 348.371 327.387 348.202 328.048 348.202C328.56 348.202 328.973 348.288 329.288 348.46C329.603 348.628 329.848 348.825 330.023 349.05C330.202 349.276 330.34 349.474 330.436 349.646H330.554V348.31H332.127V356.735C332.127 357.443 331.962 358.024 331.633 358.479C331.304 358.933 330.859 359.269 330.297 359.488C329.739 359.706 329.109 359.815 328.408 359.815ZM328.392 355.098C328.853 355.098 329.243 354.991 329.562 354.776C329.884 354.558 330.127 354.247 330.292 353.842C330.46 353.435 330.544 352.946 330.544 352.377C330.544 351.823 330.461 351.335 330.297 350.912C330.132 350.49 329.891 350.161 329.572 349.925C329.254 349.685 328.861 349.566 328.392 349.566C327.909 349.566 327.506 349.691 327.185 349.941C326.863 350.188 326.619 350.524 326.455 350.95C326.294 351.376 326.213 351.851 326.213 352.377C326.213 352.918 326.296 353.392 326.46 353.799C326.625 354.207 326.868 354.526 327.19 354.755C327.515 354.984 327.916 355.098 328.392 355.098ZM337.831 356.719C337.019 356.719 336.32 356.545 335.733 356.198C335.15 355.847 334.699 355.356 334.381 354.722C334.066 354.086 333.908 353.34 333.908 352.485C333.908 351.64 334.066 350.896 334.381 350.252C334.699 349.608 335.143 349.106 335.711 348.744C336.284 348.383 336.953 348.202 337.718 348.202C338.183 348.202 338.634 348.279 339.071 348.433C339.507 348.587 339.899 348.829 340.246 349.158C340.593 349.487 340.866 349.914 341.067 350.44C341.267 350.962 341.367 351.597 341.367 352.345V352.914H334.815V351.712H339.795C339.795 351.29 339.709 350.916 339.537 350.59C339.366 350.261 339.124 350.002 338.813 349.812C338.505 349.623 338.144 349.528 337.729 349.528C337.278 349.528 336.885 349.639 336.548 349.861C336.216 350.079 335.958 350.365 335.776 350.719C335.597 351.07 335.507 351.451 335.507 351.862V352.801C335.507 353.352 335.604 353.821 335.797 354.207C335.994 354.594 336.268 354.889 336.618 355.093C336.969 355.293 337.378 355.393 337.847 355.393C338.151 355.393 338.428 355.35 338.679 355.264C338.929 355.175 339.146 355.043 339.328 354.867C339.511 354.692 339.65 354.476 339.747 354.218L341.265 354.492C341.144 354.939 340.925 355.331 340.611 355.667C340.299 356 339.908 356.259 339.435 356.445C338.967 356.627 338.432 356.719 337.831 356.719ZM346.995 348.31V349.598H342.493V348.31H346.995ZM343.7 346.335H345.305V354.132C345.305 354.443 345.351 354.678 345.444 354.835C345.537 354.989 345.657 355.094 345.804 355.152C345.954 355.205 346.117 355.232 346.292 355.232C346.421 355.232 346.534 355.223 346.63 355.205C346.727 355.187 346.802 355.173 346.856 355.162L347.145 356.488C347.052 356.524 346.92 356.559 346.748 356.595C346.576 356.635 346.362 356.656 346.104 356.66C345.682 356.667 345.289 356.592 344.924 356.434C344.559 356.277 344.264 356.034 344.038 355.704C343.813 355.375 343.7 354.962 343.7 354.465V346.335ZM350.551 351.658V356.552H348.947V345.562H350.53V349.651H350.632C350.825 349.208 351.12 348.855 351.517 348.594C351.914 348.333 352.433 348.202 353.074 348.202C353.639 348.202 354.132 348.319 354.555 348.551C354.98 348.784 355.309 349.131 355.542 349.592C355.778 350.05 355.896 350.623 355.896 351.31V356.552H354.292V351.503C354.292 350.898 354.136 350.429 353.825 350.097C353.514 349.76 353.081 349.592 352.526 349.592C352.147 349.592 351.807 349.673 351.507 349.834C351.21 349.995 350.975 350.231 350.804 350.542C350.636 350.85 350.551 351.222 350.551 351.658ZM361.59 356.719C360.778 356.719 360.078 356.545 359.491 356.198C358.908 355.847 358.458 355.356 358.139 354.722C357.824 354.086 357.667 353.34 357.667 352.485C357.667 351.64 357.824 350.896 358.139 350.252C358.458 349.608 358.901 349.106 359.47 348.744C360.042 348.383 360.711 348.202 361.477 348.202C361.942 348.202 362.393 348.279 362.829 348.433C363.266 348.587 363.657 348.829 364.004 349.158C364.351 349.487 364.625 349.914 364.825 350.44C365.026 350.962 365.126 351.597 365.126 352.345V352.914H358.574V351.712H363.554C363.554 351.29 363.468 350.916 363.296 350.59C363.124 350.261 362.883 350.002 362.572 349.812C362.264 349.623 361.903 349.528 361.488 349.528C361.037 349.528 360.643 349.639 360.307 349.861C359.974 350.079 359.717 350.365 359.534 350.719C359.356 351.07 359.266 351.451 359.266 351.862V352.801C359.266 353.352 359.363 353.821 359.556 354.207C359.753 354.594 360.026 354.889 360.377 355.093C360.727 355.293 361.137 355.393 361.606 355.393C361.91 355.393 362.187 355.35 362.438 355.264C362.688 355.175 362.904 355.043 363.087 354.867C363.269 354.692 363.409 354.476 363.505 354.218L365.024 354.492C364.902 354.939 364.684 355.331 364.369 355.667C364.058 356 363.666 356.259 363.194 356.445C362.725 356.627 362.191 356.719 361.59 356.719ZM366.906 356.552V348.31H368.457V349.619H368.543C368.693 349.176 368.958 348.827 369.337 348.573C369.72 348.315 370.153 348.186 370.636 348.186C370.736 348.186 370.854 348.19 370.99 348.197C371.129 348.204 371.238 348.213 371.317 348.224V349.759C371.253 349.741 371.138 349.721 370.974 349.7C370.809 349.675 370.645 349.662 370.48 349.662C370.101 349.662 369.763 349.743 369.466 349.904C369.172 350.061 368.94 350.281 368.768 350.564C368.597 350.843 368.511 351.161 368.511 351.519V356.552H366.906ZM374.31 351.658V356.552H372.706V348.31H374.246V349.651H374.348C374.537 349.215 374.834 348.864 375.238 348.6C375.646 348.335 376.16 348.202 376.779 348.202C377.34 348.202 377.832 348.321 378.254 348.557C378.676 348.789 379.004 349.136 379.236 349.598C379.469 350.059 379.585 350.63 379.585 351.31V356.552H377.981V351.503C377.981 350.905 377.825 350.438 377.514 350.102C377.203 349.762 376.775 349.592 376.231 349.592C375.859 349.592 375.528 349.673 375.238 349.834C374.952 349.995 374.725 350.231 374.557 350.542C374.392 350.85 374.31 351.222 374.31 351.658ZM385.289 356.719C384.477 356.719 383.778 356.545 383.191 356.198C382.608 355.847 382.157 355.356 381.839 354.722C381.524 354.086 381.367 353.34 381.367 352.485C381.367 351.64 381.524 350.896 381.839 350.252C382.157 349.608 382.601 349.106 383.17 348.744C383.742 348.383 384.411 348.202 385.177 348.202C385.642 348.202 386.092 348.279 386.529 348.433C386.965 348.587 387.357 348.829 387.704 349.158C388.051 349.487 388.325 349.914 388.525 350.44C388.725 350.962 388.826 351.597 388.826 352.345V352.914H382.274V351.712H387.253C387.253 351.29 387.167 350.916 386.996 350.59C386.824 350.261 386.583 350.002 386.271 349.812C385.964 349.623 385.602 349.528 385.187 349.528C384.737 349.528 384.343 349.639 384.007 349.861C383.674 350.079 383.417 350.365 383.234 350.719C383.055 351.07 382.966 351.451 382.966 351.862V352.801C382.966 353.352 383.062 353.821 383.256 354.207C383.452 354.594 383.726 354.889 384.077 355.093C384.427 355.293 384.837 355.393 385.305 355.393C385.609 355.393 385.887 355.35 386.137 355.264C386.388 355.175 386.604 355.043 386.786 354.867C386.969 354.692 387.108 354.476 387.205 354.218L388.724 354.492C388.602 354.939 388.384 355.331 388.069 355.667C387.758 356 387.366 356.259 386.894 356.445C386.425 356.627 385.89 356.719 385.289 356.719ZM396.782 350.322L395.328 350.58C395.267 350.394 395.171 350.217 395.038 350.048C394.909 349.88 394.734 349.743 394.512 349.635C394.291 349.528 394.013 349.474 393.681 349.474C393.226 349.474 392.847 349.576 392.543 349.78C392.239 349.98 392.087 350.24 392.087 350.558C392.087 350.834 392.189 351.056 392.393 351.224C392.597 351.392 392.926 351.53 393.38 351.637L394.689 351.937C395.448 352.113 396.013 352.383 396.385 352.748C396.757 353.113 396.943 353.587 396.943 354.17C396.943 354.663 396.8 355.103 396.514 355.49C396.231 355.873 395.836 356.173 395.328 356.391C394.824 356.609 394.239 356.719 393.573 356.719C392.65 356.719 391.897 356.522 391.314 356.128C390.731 355.731 390.373 355.168 390.241 354.438L391.792 354.202C391.888 354.606 392.087 354.912 392.387 355.119C392.688 355.323 393.08 355.425 393.563 355.425C394.088 355.425 394.509 355.316 394.824 355.098C395.138 354.876 395.296 354.606 395.296 354.288C395.296 354.03 395.199 353.814 395.006 353.638C394.816 353.463 394.525 353.331 394.131 353.241L392.736 352.935C391.967 352.76 391.398 352.481 391.03 352.098C390.665 351.716 390.482 351.231 390.482 350.644C390.482 350.158 390.618 349.732 390.89 349.367C391.162 349.002 391.538 348.718 392.017 348.514C392.497 348.306 393.046 348.202 393.665 348.202C394.555 348.202 395.257 348.396 395.768 348.782C396.28 349.165 396.618 349.678 396.782 350.322ZM404.884 350.322L403.43 350.58C403.369 350.394 403.272 350.217 403.14 350.048C403.011 349.88 402.836 349.743 402.614 349.635C402.392 349.528 402.115 349.474 401.782 349.474C401.328 349.474 400.949 349.576 400.645 349.78C400.34 349.98 400.188 350.24 400.188 350.558C400.188 350.834 400.29 351.056 400.494 351.224C400.698 351.392 401.027 351.53 401.482 351.637L402.791 351.937C403.549 352.113 404.115 352.383 404.487 352.748C404.859 353.113 405.045 353.587 405.045 354.17C405.045 354.663 404.902 355.103 404.616 355.49C404.333 355.873 403.938 356.173 403.43 356.391C402.925 356.609 402.34 356.719 401.675 356.719C400.752 356.719 399.999 356.522 399.416 356.128C398.833 355.731 398.475 355.168 398.342 354.438L399.893 354.202C399.99 354.606 400.188 354.912 400.489 355.119C400.789 355.323 401.181 355.425 401.664 355.425C402.19 355.425 402.61 355.316 402.925 355.098C403.24 354.876 403.397 354.606 403.397 354.288C403.397 354.03 403.301 353.814 403.108 353.638C402.918 353.463 402.626 353.331 402.233 353.241L400.838 352.935C400.069 352.76 399.5 352.481 399.131 352.098C398.766 351.716 398.584 351.231 398.584 350.644C398.584 350.158 398.72 349.732 398.992 349.367C399.264 349.002 399.639 348.718 400.119 348.514C400.598 348.306 401.147 348.202 401.766 348.202C402.657 348.202 403.358 348.396 403.87 348.782C404.381 349.165 404.719 349.678 404.884 350.322Z" fill="#101010"/>
<defs>
<filter id="filter0_d_940_2211" x="78.0315" y="164.464" width="269.642" height="153.79" filterUnits="userSpaceOnUse" color-interpolation-filters="sRGB">
<feFlood flood-opacity="0" result="BackgroundImageFix"/>
<feColorMatrix in="SourceAlpha" type="matrix" values="0 0 0 0 0 0 0 0 0 0 0 0 0 0 0 0 0 0 127 0" result="hardAlpha"/>
<feOffset/>
<feGaussianBlur stdDeviation="20.9877"/>
<feComposite in2="hardAlpha" operator="out"/>
<feColorMatrix type="matrix" values="0 0 0 0 0 0 0 0 0 0.198718 0 0 0 0 0.476923 0 0 0 0.1 0"/>
<feBlend mode="normal" in2="BackgroundImageFix" result="effect1_dropShadow_940_2211"/>
<feBlend mode="normal" in="SourceGraphic" in2="effect1_dropShadow_940_2211" result="shape"/>
</filter>
<linearGradient id="paint0_linear_940_2211" x1="213.352" y1="170.841" x2="213.352" y2="41.5569" gradientUnits="userSpaceOnUse">
<stop stop-color="#2EBEFA" stop-opacity="0"/>
<stop offset="0.472275" stop-color="#2EBEFA"/>
<stop offset="0.97056" stop-color="#2E90FA"/>
<stop offset="1" stop-color="#2E90FA" stop-opacity="0"/>
</linearGradient>
<linearGradient id="paint1_linear_940_2211" x1="114.5" y1="102.478" x2="191.235" y2="172.939" gradientUnits="userSpaceOnUse">
<stop offset="0.0294395" stop-color="#2E90FA"/>
<stop offset="0.527725" stop-color="#2EBEFA"/>
<stop offset="1" stop-color="#2EBEFA" stop-opacity="0"/>
</linearGradient>
<linearGradient id="paint2_linear_940_2211" x1="154.716" y1="243.836" x2="83.4812" y2="314.545" gradientUnits="userSpaceOnUse">
<stop offset="0.0294395" stop-color="#2E90FA"/>
<stop offset="0.527725" stop-color="#2EBEFA"/>
<stop offset="1" stop-color="#2EBEFA" stop-opacity="0"/>
</linearGradient>
<linearGradient id="paint3_linear_940_2211" x1="297.196" y1="118.978" x2="231.482" y2="184.692" gradientUnits="userSpaceOnUse">
<stop offset="0.0294395" stop-color="#2E90FA"/>
<stop offset="0.527725" stop-color="#2EBEFA"/>
<stop offset="1" stop-color="#2EBEFA" stop-opacity="0"/>
</linearGradient>
<linearGradient id="paint4_linear_940_2211" x1="265.672" y1="241.953" x2="340.191" y2="312.416" gradientUnits="userSpaceOnUse">
<stop offset="0.0294395" stop-color="#2E90FA"/>
<stop offset="0.527725" stop-color="#2EBEFA"/>
<stop offset="1" stop-color="#2EBEFA" stop-opacity="0"/>
</linearGradient>
</defs>
</svg>
