<svg width="40" height="40" viewBox="0 0 40 40" fill="none" xmlns="http://www.w3.org/2000/svg">
<path d="M35.4171 30.7834L32.6671 31.4334C32.0504 31.5834 31.5671 32.05 31.4337 32.6667L30.8504 35.1167C30.5337 36.45 28.8337 36.8667 27.9504 35.8167L22.9671 30.0834C22.5671 29.6167 22.7837 28.8834 23.3837 28.7334C26.3337 28.0167 28.9837 26.3667 30.9337 24.0167C31.2504 23.6334 31.8171 23.5834 32.1671 23.9334L35.8671 27.6334C37.1337 28.9 36.6837 30.4834 35.4171 30.7834Z" fill="#2E90FA"/>
<path d="M4.50125 30.7834L7.25125 31.4334C7.86791 31.5834 8.35125 32.05 8.48458 32.6667L9.06791 35.1167C9.38458 36.45 11.0846 36.8667 11.9679 35.8167L16.9512 30.0834C17.3512 29.6167 17.1346 28.8834 16.5346 28.7334C13.5846 28.0167 10.9346 26.3667 8.98458 24.0167C8.66791 23.6334 8.10125 23.5834 7.75125 23.9334L4.05125 27.6334C2.78458 28.9 3.23458 30.4834 4.50125 30.7834Z" fill="#2E90FA"/>
<path d="M19.9987 3.33331C13.5487 3.33331 8.33203 8.54998 8.33203 15C8.33203 17.4166 9.0487 19.6333 10.282 21.4833C12.082 24.15 14.932 26.0333 18.2487 26.5166C18.8154 26.6166 19.3987 26.6666 19.9987 26.6666C20.5987 26.6666 21.182 26.6166 21.7487 26.5166C25.0654 26.0333 27.9154 24.15 29.7154 21.4833C30.9487 19.6333 31.6654 17.4166 31.6654 15C31.6654 8.54998 26.4487 3.33331 19.9987 3.33331ZM25.0987 14.6333L23.7154 16.0166C23.482 16.25 23.3487 16.7 23.432 17.0333L23.832 18.75C24.1487 20.1 23.432 20.6333 22.232 19.9166L20.5654 18.9333C20.2654 18.75 19.7654 18.75 19.4654 18.9333L17.7987 19.9166C16.5987 20.6166 15.882 20.1 16.1987 18.75L16.5987 17.0333C16.6654 16.7166 16.5487 16.25 16.3154 16.0166L14.8987 14.6333C14.082 13.8166 14.3487 13 15.482 12.8166L17.2654 12.5166C17.5654 12.4666 17.9154 12.2 18.0487 11.9333L19.032 9.96665C19.5654 8.89998 20.432 8.89998 20.9654 9.96665L21.9487 11.9333C22.082 12.2 22.432 12.4666 22.7487 12.5166L24.532 12.8166C25.6487 13 25.9154 13.8166 25.0987 14.6333Z" fill="#2E90FA"/>
</svg>
