<svg width="40" height="40" viewBox="0 0 40 40" fill="none" xmlns="http://www.w3.org/2000/svg">
<path d="M30.7827 28.05L31.4327 33.3166C31.5993 34.7 30.116 35.6666 28.9327 34.95L23.166 31.5166C22.766 31.2833 22.666 30.7833 22.8827 30.3833C23.716 28.85 24.166 27.1166 24.166 25.3833C24.166 19.2833 18.9327 14.3166 12.4993 14.3166C11.1827 14.3166 9.89933 14.5166 8.69933 14.9166C8.08267 15.1166 7.48267 14.55 7.63267 13.9166C9.14933 7.84998 14.9827 3.33331 21.9493 3.33331C30.0827 3.33331 36.666 9.48331 36.666 17.0666C36.666 21.5666 34.3493 25.55 30.7827 28.05Z" fill="#2E90FA"/>
<path d="M21.6654 25.3833C21.6654 27.3666 20.932 29.2 19.6987 30.65C18.0487 32.65 15.432 33.9333 12.4987 33.9333L8.1487 36.5166C7.41536 36.9667 6.48203 36.35 6.58203 35.5L6.9987 32.2167C4.76536 30.6666 3.33203 28.1833 3.33203 25.3833C3.33203 22.45 4.8987 19.8667 7.2987 18.3333C8.78203 17.3667 10.5654 16.8167 12.4987 16.8167C17.5654 16.8167 21.6654 20.65 21.6654 25.3833Z" fill="#2E90FA"/>
</svg>
