<svg width="40" height="40" viewBox="0 0 40 40" fill="none" xmlns="http://www.w3.org/2000/svg">
<path d="M29.2177 12.95C29.101 12.9333 28.9844 12.9333 28.8677 12.95C26.2844 12.8666 24.2344 10.75 24.2344 8.14998C24.2344 5.49998 26.3844 3.33331 29.051 3.33331C31.701 3.33331 33.8677 5.48331 33.8677 8.14998C33.851 10.75 31.801 12.8666 29.2177 12.95Z" fill="#2E90FA"/>
<path d="M34.6493 24.4999C32.7827 25.7499 30.166 26.2166 27.7493 25.8999C28.3827 24.5333 28.716 23.0166 28.7327 21.4166C28.7327 19.7499 28.366 18.1666 27.666 16.7833C30.1327 16.4499 32.7493 16.9166 34.6327 18.1666C37.266 19.8999 37.266 22.7499 34.6493 24.4999Z" fill="#2E90FA"/>
<path d="M10.731 12.95C10.8477 12.9333 10.9643 12.9333 11.081 12.95C13.6643 12.8666 15.7143 10.75 15.7143 8.14998C15.7143 5.48331 13.5643 3.33331 10.8977 3.33331C8.24766 3.33331 6.09766 5.48331 6.09766 8.14998C6.09766 10.75 8.14766 12.8666 10.731 12.95Z" fill="#2E90FA"/>
<path d="M10.9159 21.4167C10.9159 23.0334 11.2659 24.5667 11.8992 25.9501C9.54922 26.2001 7.09922 25.7001 5.29922 24.5167C2.66589 22.7667 2.66589 19.9167 5.29922 18.1667C7.08255 16.9667 9.59922 16.4834 11.9659 16.7501C11.2826 18.1501 10.9159 19.7334 10.9159 21.4167Z" fill="#2E90FA"/>
<path d="M20.2 26.45C20.0667 26.4333 19.9167 26.4333 19.7667 26.45C16.7 26.35 14.25 23.8333 14.25 20.7333C14.2667 17.5667 16.8167 15 20 15C23.1667 15 25.7333 17.5667 25.7333 20.7333C25.7167 23.8333 23.2833 26.35 20.2 26.45Z" fill="#2E90FA"/>
<path d="M14.782 29.9C12.2654 31.5834 12.2654 34.35 14.782 36.0167C17.6487 37.9334 22.3487 37.9334 25.2154 36.0167C27.732 34.3334 27.732 31.5667 25.2154 29.9C22.3654 27.9834 17.6654 27.9834 14.782 29.9Z" fill="#2E90FA"/>
</svg>
