<svg width="1348" height="1000" viewBox="0 0 1348 1000" fill="none" xmlns="http://www.w3.org/2000/svg">
<g clip-path="url(#clip0_1242_280)">
<path d="M0 64C0 41.5979 0 30.3968 4.35974 21.8404C8.19467 14.3139 14.3139 8.19467 21.8404 4.35974C30.3968 0 41.5979 0 64 0H1284C1306.4 0 1317.6 0 1326.16 4.35974C1333.69 8.19467 1339.81 14.3139 1343.64 21.8404C1348 30.3968 1348 41.5979 1348 64V1000H0V64Z" fill="url(#paint0_linear_1242_280)"/>
<path d="M0 64C0 41.5979 0 30.3968 4.35974 21.8404C8.19467 14.3139 14.3139 8.19467 21.8404 4.35974C30.3968 0 41.5979 0 64 0H1284C1306.4 0 1317.6 0 1326.16 4.35974C1333.69 8.19467 1339.81 14.3139 1343.64 21.8404C1348 30.3968 1348 41.5979 1348 64V1000H0V64Z" fill="url(#paint1_linear_1242_280)"/>
<g clip-path="url(#clip1_1242_280)">
<g opacity="0.2">
<g filter="url(#filter0_f_1242_280)">
<path d="M351.57 -161.316L315.431 -64.8222C143.217 395.011 -143.895 803.04 -518.479 1120.29C-182.241 739.91 58.9754 285.098 185.313 -206.708L188.789 -220.239L351.57 -161.316Z" fill="#4886EA"/>
</g>
<g opacity="0.09" filter="url(#filter1_f_1242_280)">
<path d="M234.487 -58.834L198.577 37.7443C27.4502 497.985 -258.697 906.694 -632.531 1224.83C-297.193 843.654 -57.0512 388.271 68.1245 -103.833L71.5681 -117.371L234.487 -58.834Z" fill="#4886EA"/>
</g>
<g style="mix-blend-mode:screen" filter="url(#filter2_f_1242_280)">
<path d="M351.569 -161.316L324.829 -101.227C121.905 354.77 -164.074 769.005 -518.479 1120.29C-178.917 758.683 79.8517 328.891 240.607 -140.489L249.253 -165.732L351.569 -161.316Z" fill="#B4D9FF"/>
</g>
<g style="mix-blend-mode:screen" opacity="0.09" filter="url(#filter3_f_1242_280)">
<path d="M234.487 -58.834L207.889 1.31728C6.04281 457.795 -278.957 872.706 -632.531 1224.83C-293.824 862.419 -36.0717 432.015 123.575 -37.7449L132.16 -63.0073L234.487 -58.834Z" fill="#B4D9FF"/>
</g>
<g style="mix-blend-mode:color-dodge" filter="url(#filter4_f_1242_280)">
<path d="M351.57 -161.316L315.431 -64.8222C143.217 395.011 -143.895 803.04 -518.479 1120.29C-182.241 739.91 58.9754 285.098 185.313 -206.708L188.789 -220.239L351.57 -161.316Z" fill="#8DBBE9"/>
</g>
<g style="mix-blend-mode:color-dodge" opacity="0.09" filter="url(#filter5_f_1242_280)">
<path d="M227.656 -73.0274L191.746 23.5509C20.6191 483.792 -265.528 892.501 -639.362 1210.64C-304.024 829.461 -63.8822 374.078 61.2935 -118.027L64.7371 -131.564L227.656 -73.0274Z" fill="#3794F1"/>
</g>
</g>
</g>
<g clip-path="url(#clip2_1242_280)">
<g opacity="0.2">
<g filter="url(#filter6_f_1242_280)">
<path d="M996.43 -161.316L1032.57 -64.8222C1204.78 395.011 1491.89 803.04 1866.48 1120.29C1530.24 739.91 1289.02 285.098 1162.69 -206.708L1159.21 -220.239L996.43 -161.316Z" fill="#4886EA"/>
</g>
<g opacity="0.09" filter="url(#filter7_f_1242_280)">
<path d="M1113.51 -58.834L1149.42 37.7443C1320.55 497.985 1606.7 906.694 1980.53 1224.83C1645.19 843.654 1405.05 388.271 1279.88 -103.833L1276.43 -117.371L1113.51 -58.834Z" fill="#4886EA"/>
</g>
<g style="mix-blend-mode:screen" filter="url(#filter8_f_1242_280)">
<path d="M996.431 -161.316L1023.17 -101.227C1226.1 354.77 1512.07 769.005 1866.48 1120.29C1526.92 758.683 1268.15 328.891 1107.39 -140.489L1098.75 -165.732L996.431 -161.316Z" fill="#B4D9FF"/>
</g>
<g style="mix-blend-mode:screen" opacity="0.09" filter="url(#filter9_f_1242_280)">
<path d="M1113.51 -58.834L1140.11 1.31728C1341.96 457.795 1626.96 872.706 1980.53 1224.83C1641.82 862.419 1384.07 432.015 1224.43 -37.7449L1215.84 -63.0073L1113.51 -58.834Z" fill="#B4D9FF"/>
</g>
<g style="mix-blend-mode:color-dodge" filter="url(#filter10_f_1242_280)">
<path d="M996.43 -161.316L1032.57 -64.8222C1204.78 395.011 1491.89 803.04 1866.48 1120.29C1530.24 739.91 1289.02 285.098 1162.69 -206.708L1159.21 -220.239L996.43 -161.316Z" fill="#8DBBE9"/>
</g>
<g style="mix-blend-mode:color-dodge" opacity="0.09" filter="url(#filter11_f_1242_280)">
<path d="M1120.34 -73.0274L1156.25 23.5509C1327.38 483.792 1613.53 892.501 1987.36 1210.64C1652.02 829.461 1411.88 374.078 1286.71 -118.027L1283.26 -131.564L1120.34 -73.0274Z" fill="#3794F1"/>
</g>
</g>
</g>
<path d="M-1 0H1349V1000H-1V0Z" fill="url(#paint2_linear_1242_280)"/>
<g filter="url(#filter12_f_1242_280)">
<ellipse cx="448" cy="456.5" rx="226" ry="204.5" fill="#2E90FA" fill-opacity="0.3"/>
</g>
<g opacity="0.75">
<path d="M587.795 -99.6052L619.894 -17.7389C624.538 -5.8956 624.493 7.27242 619.768 19.0837L587 101" stroke="url(#paint3_linear_1242_280)" stroke-width="2"/>
<path d="M759.808 -99.6052L727.708 -17.7389C723.064 -5.8956 723.109 7.27242 727.834 19.0837L760.603 101" stroke="url(#paint4_linear_1242_280)" stroke-width="2"/>
<g opacity="0.75" filter="url(#filter13_f_1242_280)">
<path d="M587.795 -100H761L728.804 -17.9641C724.196 -6.22227 724.196 6.82738 728.804 18.5692L761 100.605C708.584 65.5572 640.211 65.5572 587.795 100.605L619.991 18.5692C624.599 6.82737 624.599 -6.22229 619.991 -17.9641L587.795 -100Z" fill="url(#paint5_linear_1242_280)"/>
</g>
</g>
</g>
<defs>
<filter id="filter0_f_1242_280" x="-558.479" y="-260.239" width="950.049" height="1420.53" filterUnits="userSpaceOnUse" color-interpolation-filters="sRGB">
<feFlood flood-opacity="0" result="BackgroundImageFix"/>
<feBlend mode="normal" in="SourceGraphic" in2="BackgroundImageFix" result="shape"/>
<feGaussianBlur stdDeviation="20" result="effect1_foregroundBlur_1242_280"/>
</filter>
<filter id="filter1_f_1242_280" x="-672.531" y="-157.371" width="947.019" height="1422.2" filterUnits="userSpaceOnUse" color-interpolation-filters="sRGB">
<feFlood flood-opacity="0" result="BackgroundImageFix"/>
<feBlend mode="normal" in="SourceGraphic" in2="BackgroundImageFix" result="shape"/>
<feGaussianBlur stdDeviation="20" result="effect1_foregroundBlur_1242_280"/>
</filter>
<filter id="filter2_f_1242_280" x="-558.479" y="-205.732" width="950.049" height="1366.02" filterUnits="userSpaceOnUse" color-interpolation-filters="sRGB">
<feFlood flood-opacity="0" result="BackgroundImageFix"/>
<feBlend mode="normal" in="SourceGraphic" in2="BackgroundImageFix" result="shape"/>
<feGaussianBlur stdDeviation="20" result="effect1_foregroundBlur_1242_280"/>
</filter>
<filter id="filter3_f_1242_280" x="-672.531" y="-103.007" width="947.019" height="1367.84" filterUnits="userSpaceOnUse" color-interpolation-filters="sRGB">
<feFlood flood-opacity="0" result="BackgroundImageFix"/>
<feBlend mode="normal" in="SourceGraphic" in2="BackgroundImageFix" result="shape"/>
<feGaussianBlur stdDeviation="20" result="effect1_foregroundBlur_1242_280"/>
</filter>
<filter id="filter4_f_1242_280" x="-638.479" y="-340.239" width="1110.05" height="1580.53" filterUnits="userSpaceOnUse" color-interpolation-filters="sRGB">
<feFlood flood-opacity="0" result="BackgroundImageFix"/>
<feBlend mode="normal" in="SourceGraphic" in2="BackgroundImageFix" result="shape"/>
<feGaussianBlur stdDeviation="60" result="effect1_foregroundBlur_1242_280"/>
</filter>
<filter id="filter5_f_1242_280" x="-939.362" y="-431.564" width="1467.02" height="1942.2" filterUnits="userSpaceOnUse" color-interpolation-filters="sRGB">
<feFlood flood-opacity="0" result="BackgroundImageFix"/>
<feBlend mode="normal" in="SourceGraphic" in2="BackgroundImageFix" result="shape"/>
<feGaussianBlur stdDeviation="150" result="effect1_foregroundBlur_1242_280"/>
</filter>
<filter id="filter6_f_1242_280" x="956.431" y="-260.239" width="950.049" height="1420.53" filterUnits="userSpaceOnUse" color-interpolation-filters="sRGB">
<feFlood flood-opacity="0" result="BackgroundImageFix"/>
<feBlend mode="normal" in="SourceGraphic" in2="BackgroundImageFix" result="shape"/>
<feGaussianBlur stdDeviation="20" result="effect1_foregroundBlur_1242_280"/>
</filter>
<filter id="filter7_f_1242_280" x="1073.51" y="-157.371" width="947.019" height="1422.2" filterUnits="userSpaceOnUse" color-interpolation-filters="sRGB">
<feFlood flood-opacity="0" result="BackgroundImageFix"/>
<feBlend mode="normal" in="SourceGraphic" in2="BackgroundImageFix" result="shape"/>
<feGaussianBlur stdDeviation="20" result="effect1_foregroundBlur_1242_280"/>
</filter>
<filter id="filter8_f_1242_280" x="956.431" y="-205.732" width="950.049" height="1366.02" filterUnits="userSpaceOnUse" color-interpolation-filters="sRGB">
<feFlood flood-opacity="0" result="BackgroundImageFix"/>
<feBlend mode="normal" in="SourceGraphic" in2="BackgroundImageFix" result="shape"/>
<feGaussianBlur stdDeviation="20" result="effect1_foregroundBlur_1242_280"/>
</filter>
<filter id="filter9_f_1242_280" x="1073.51" y="-103.007" width="947.019" height="1367.84" filterUnits="userSpaceOnUse" color-interpolation-filters="sRGB">
<feFlood flood-opacity="0" result="BackgroundImageFix"/>
<feBlend mode="normal" in="SourceGraphic" in2="BackgroundImageFix" result="shape"/>
<feGaussianBlur stdDeviation="20" result="effect1_foregroundBlur_1242_280"/>
</filter>
<filter id="filter10_f_1242_280" x="876.431" y="-340.239" width="1110.05" height="1580.53" filterUnits="userSpaceOnUse" color-interpolation-filters="sRGB">
<feFlood flood-opacity="0" result="BackgroundImageFix"/>
<feBlend mode="normal" in="SourceGraphic" in2="BackgroundImageFix" result="shape"/>
<feGaussianBlur stdDeviation="60" result="effect1_foregroundBlur_1242_280"/>
</filter>
<filter id="filter11_f_1242_280" x="820.344" y="-431.564" width="1467.02" height="1942.2" filterUnits="userSpaceOnUse" color-interpolation-filters="sRGB">
<feFlood flood-opacity="0" result="BackgroundImageFix"/>
<feBlend mode="normal" in="SourceGraphic" in2="BackgroundImageFix" result="shape"/>
<feGaussianBlur stdDeviation="150" result="effect1_foregroundBlur_1242_280"/>
</filter>
<filter id="filter12_f_1242_280" x="-198" y="-168" width="1292" height="1249" filterUnits="userSpaceOnUse" color-interpolation-filters="sRGB">
<feFlood flood-opacity="0" result="BackgroundImageFix"/>
<feBlend mode="normal" in="SourceGraphic" in2="BackgroundImageFix" result="shape"/>
<feGaussianBlur stdDeviation="210" result="effect1_foregroundBlur_1242_280"/>
</filter>
<filter id="filter13_f_1242_280" x="581.795" y="-106" width="185.206" height="212.605" filterUnits="userSpaceOnUse" color-interpolation-filters="sRGB">
<feFlood flood-opacity="0" result="BackgroundImageFix"/>
<feBlend mode="normal" in="SourceGraphic" in2="BackgroundImageFix" result="shape"/>
<feGaussianBlur stdDeviation="3" result="effect1_foregroundBlur_1242_280"/>
</filter>
<linearGradient id="paint0_linear_1242_280" x1="674" y1="0" x2="674" y2="1000" gradientUnits="userSpaceOnUse">
<stop stop-color="white"/>
<stop offset="1" stop-color="white" stop-opacity="0"/>
</linearGradient>
<linearGradient id="paint1_linear_1242_280" x1="674" y1="0" x2="674" y2="1000" gradientUnits="userSpaceOnUse">
<stop stop-color="#A9D5F0"/>
<stop offset="0.661211" stop-color="#BFDFF4"/>
<stop offset="0.846492" stop-color="#C9E4F5"/>
<stop offset="1" stop-color="#F6F9FE"/>
</linearGradient>
<linearGradient id="paint2_linear_1242_280" x1="674" y1="0" x2="674" y2="1000" gradientUnits="userSpaceOnUse">
<stop stop-color="#A9D5F0" stop-opacity="0"/>
<stop offset="0.577611" stop-color="#DFEFF9"/>
<stop offset="0.799181" stop-color="#F9FDFF" stop-opacity="0.75"/>
<stop offset="0.953414" stop-color="white"/>
</linearGradient>
<linearGradient id="paint3_linear_1242_280" x1="607.062" y1="-99.6052" x2="607.062" y2="101" gradientUnits="userSpaceOnUse">
<stop offset="0.30559" stop-color="white"/>
<stop offset="1" stop-color="white" stop-opacity="0"/>
</linearGradient>
<linearGradient id="paint4_linear_1242_280" x1="740.541" y1="-99.6052" x2="740.541" y2="101" gradientUnits="userSpaceOnUse">
<stop offset="0.30559" stop-color="white"/>
<stop offset="1" stop-color="white" stop-opacity="0"/>
</linearGradient>
<linearGradient id="paint5_linear_1242_280" x1="674.398" y1="-100" x2="674.398" y2="100.605" gradientUnits="userSpaceOnUse">
<stop stop-color="white"/>
<stop offset="1" stop-color="white" stop-opacity="0"/>
</linearGradient>
<clipPath id="clip0_1242_280">
<path d="M0 64C0 41.5979 0 30.3968 4.35974 21.8404C8.19467 14.3139 14.3139 8.19467 21.8404 4.35974C30.3968 0 41.5979 0 64 0H1284C1306.4 0 1317.6 0 1326.16 4.35974C1333.69 8.19467 1339.81 14.3139 1343.64 21.8404C1348 30.3968 1348 41.5979 1348 64V1000H0V64Z" fill="white"/>
</clipPath>
<clipPath id="clip1_1242_280">
<path d="M363 40C363 17.9086 345.091 0 323 0H0V705H363V40Z" fill="white"/>
</clipPath>
<clipPath id="clip2_1242_280">
<path d="M985 0H1308C1330.09 0 1348 17.9086 1348 40V705H985V0Z" fill="white"/>
</clipPath>
</defs>
</svg>
